<svg width="166" height="162" viewBox="0 0 166 162" fill="none" xmlns="http://www.w3.org/2000/svg">
<path d="M75.7119 57.4545L75.7682 61.5883L71.3622 61.6072L70.8274 61.6095L58.27 61.6635L47.3349 34.356L42.8441 33.8644L42.962 42.4983L43.0505 48.9719C43.0665 50.053 43.1569 50.7858 43.3343 51.2755C43.5135 51.7809 43.7725 52.2133 44.1032 52.5637C44.4154 52.8922 44.8485 53.2118 45.4601 53.5512C45.8134 53.705 46.1648 53.8488 46.5732 53.9868L47.6898 54.3064L49.8895 54.9363L49.9588 59.9736L49.9823 61.6813L48.2037 61.6464L21.7215 61.1268L21.6304 54.3616C22.2297 54.211 22.82 54.0799 23.3712 53.9572C25.3627 53.5157 26.4266 53.2563 26.9341 52.6569C27.6026 51.866 27.9155 50.5753 27.8918 48.7064L27.4207 14.2496C27.4032 13.022 27.2613 12.1139 26.9864 11.471C26.6933 10.7845 26.119 10.1667 25.2739 9.63097C24.5397 9.17563 23.0938 8.9397 21.1259 8.65319C20.6019 8.57718 20.0995 8.50434 19.679 8.43019L19.6128 3.64491L19.5859 1.70688L53.9231 1.32668C58.1872 1.30779 61.5268 1.8154 63.8334 2.81936C66.0864 3.80374 67.8951 5.48459 69.2099 7.81542C70.5452 10.184 71.2431 12.9728 71.2843 16.1054C71.3236 18.7974 70.9696 21.2478 70.2341 23.3881C69.5065 25.5018 68.5157 27.2357 67.2875 28.5405C66.0338 29.8683 64.3094 31.1661 62.1641 32.3962L61.5569 32.7448L69.0305 49.6962C69.6614 51.17 70.4958 52.3001 71.5095 53.054C72.435 53.7433 74.2646 54.4752 75.6763 54.8512L75.7119 57.4545ZM55.0588 17.6522C55.0307 15.7228 54.6658 14.1178 53.9745 12.8817C53.2585 11.6043 52.2992 10.712 51.1241 10.2281C50.0168 9.75579 48.4205 9.54735 46.2799 9.55697L42.5116 9.57331L42.5614 13.1991L42.7447 26.531L46.4981 26.514C46.7233 26.513 46.9311 26.5014 47.1464 26.4942C50.0632 26.3968 52.0745 25.7319 53.2575 24.4533C54.5115 23.0935 55.1012 20.8696 55.0588 17.6522ZM90.6511 54.0748C90.3972 53.8009 90.1227 53.5788 89.8418 53.3715C89.4578 53.0881 89.0551 52.8482 88.6156 52.6875C88.0871 52.4941 87.5169 52.3889 86.9009 52.3674C85.9485 52.3356 85.103 52.5367 84.3278 52.928C83.8769 53.1555 83.4437 53.4308 83.043 53.8055C81.9561 54.8225 81.4025 56.0508 81.3516 57.5587C81.3006 59.0666 81.77 60.3287 82.7877 61.4139C83.8046 62.5065 85.0304 63.0592 86.5406 63.1091C87.3476 63.1361 88.0802 63.0009 88.7585 62.7246C89.3461 62.4853 89.894 62.1431 90.4004 61.6708C90.7164 61.3752 90.974 61.0556 91.2005 60.7226C91.7532 59.9103 92.0553 58.9881 92.0912 57.9193C92.1421 56.4322 91.6709 55.1751 90.6511 54.0748Z" fill="#19105F"/>
<path d="M45.1453 13.7317C46.1591 14.149 46.9813 14.9202 47.6127 16.0464C48.2439 17.173 48.5722 18.6394 48.5973 20.4459C48.6216 22.2719 48.405 23.7213 48.0005 24.8768C49.9534 24.7055 51.3515 24.2212 52.111 23.3983C53.0687 22.3615 53.5359 20.436 53.4986 17.6765C53.475 16.0095 53.1781 14.6541 52.6137 13.6465C52.0664 12.6698 51.3851 12.0233 50.5313 11.6721C49.6025 11.2925 48.19 11.1105 46.2854 11.1174L44.0898 11.1268L44.1214 13.4272C44.5007 13.5125 44.8506 13.6104 45.1453 13.7317Z" fill="#B1E3FA"/>
<path d="M86.4857 64.6686C85.7011 64.6413 84.9654 64.5012 84.2796 64.2504C83.2929 63.8894 82.413 63.2983 81.6485 62.4801C80.351 61.0971 79.7273 59.4221 79.7912 57.5056C79.8561 55.5913 80.5917 53.964 81.9777 52.6686C82.4394 52.2366 82.9444 51.9074 83.4681 51.6252C83.4491 51.5964 83.4264 51.5621 83.4264 51.5621L78.0539 55.1389C77.7704 55.2989 77.5089 55.5159 77.2428 55.7208L77.3446 63.1415L57.2138 63.2285L46.2342 35.8042L44.4235 35.6064L44.5738 46.5307L46.952 52.4705C46.9814 52.4815 47.0105 52.4929 47.0396 52.5038L51.43 53.7571L51.5598 63.2728L20.1818 62.6552L20.0533 53.201L15.3127 56.5029C15.2611 56.5165 15.2103 56.5282 15.1587 56.5422L15.1596 56.6096L15.1523 56.6147L15.1598 56.6234L15.2702 64.6713L45.0884 65.2572L51.2937 63.3149L52.0593 65.2269L70.8734 65.1449L75.7089 63.6099C75.9396 64.0004 76.206 64.3769 76.5355 64.7289C77.6905 65.9646 79.1223 66.6118 80.8306 66.6692C81.5653 66.6938 82.2474 66.5833 82.8946 66.3837L82.9151 66.4276L88.6533 64.4213C88.6533 64.4213 88.6553 64.389 88.6557 64.383C87.969 64.5778 87.2523 64.6937 86.4857 64.6686Z" fill="#B1E3FA"/>
<path d="M21.3654 52.8372C21.9322 52.6977 22.5076 52.5552 23.0308 52.4389C24.0691 52.2081 25.4896 51.8914 25.7485 51.6448C26.0256 51.3176 26.3551 50.5412 26.3315 48.7292L25.8604 14.2724C25.8428 13.0192 25.6838 12.3912 25.5529 12.0854C25.3851 11.694 25.0127 11.3123 24.4462 10.9533C23.9339 10.6379 22.1803 10.3824 20.9 10.1966C20.043 10.0718 19.2461 9.95384 18.7191 9.82366L18.1365 9.67976L18.0062 0.220453C17.9933 0.173074 17.9839 0.138672 17.9839 0.138672L13.1143 3.71829L13.2248 11.847C14.6574 12.2017 18.1658 12.4475 19.1819 13.075C19.8877 13.5237 20.3563 14.0184 20.5884 14.5597C20.8197 15.1006 20.9428 15.9284 20.9581 17.0419L21.4294 51.499C21.4361 51.9963 21.4092 52.432 21.3654 52.8372Z" fill="#B1E3FA"/>
<path d="M109.875 11.9729C113.094 11.6567 115.432 12.1486 116.633 13.3907C117.775 14.5729 117.586 16.0934 117.567 16.3061L117.662 48.2994C117.663 48.327 117.692 50.3256 117.071 52.3263C117.158 52.3242 117.234 52.3396 117.321 52.3359C118.528 52.3312 120.214 51.722 120.855 50.8232C122.366 48.7 122.324 45.1218 122.325 45.0868L122.228 13.0811C122.285 12.4621 122.26 11.4785 121.513 10.7051C120.498 9.65486 118.321 9.23353 115.39 9.52064L113.412 9.71618L113.385 0L108.725 3.99202L108.748 12.0838L109.875 11.9729Z" fill="#B1E3FA"/>
<path d="M142.722 64.3599L142.776 64.4106C142.776 64.4106 148.912 62.0007 149.049 61.6778C148.179 62.0183 147.241 62.182 146.234 62.143C145.653 62.1195 145.096 62.0345 144.569 61.8885C143.361 61.5536 142.301 60.8975 141.404 59.9272C140.114 58.5329 139.498 56.8542 139.573 54.9381C139.639 53.2782 140.238 51.8505 141.296 50.6562L139.005 52.598C137.994 54.7408 136.635 56.5934 134.92 58.1348C134.919 58.1559 134.913 58.1745 134.912 58.1956C134.845 59.9051 135.385 61.3816 136.535 62.625C137.685 63.8682 139.114 64.5236 140.825 64.5912C141.497 64.6175 142.122 64.5217 142.722 64.3599Z" fill="#B1E3FA"/>
<path d="M116.408 63.817C112.395 63.8282 108.713 63.3776 105.466 62.4776C100.749 61.1703 97.2309 58.9762 95.2898 56.1318C93.9701 54.1988 93.7208 44.1511 93.6905 38.3333L93.6818 36.4346L93.6811 36.4336L89.0234 40.4626L89.0289 41.5563C89.0385 43.3725 89.0853 47.3 89.2935 50.987C90.0214 51.2898 90.7072 51.7056 91.3295 52.2777C92.7334 53.5668 93.4896 55.1791 93.5774 57.069C93.6472 58.5686 93.2766 59.9208 92.5039 61.113C94.4347 62.7679 97.0618 64.0747 100.234 64.954C103.356 65.8193 106.991 66.2764 110.965 66.2653C115.886 66.2507 120.078 65.5292 123.516 64.1296L123.532 64.1401L129.549 61.5405L129.52 61.5031C125.936 63.0167 121.56 63.8019 116.408 63.817Z" fill="#B1E3FA"/>
<path d="M139.623 41.6639C139.644 48.6035 137.598 53.8633 133.543 57.2968C132.576 58.1164 131.488 58.8353 130.285 59.4532C126.681 61.3026 122.032 62.2458 116.403 62.2626C107.112 62.2865 99.5463 59.6045 96.5749 55.2566C95.8464 54.1868 95.3213 47.6468 95.2533 38.907C95.2518 38.7132 95.2493 38.5243 95.2482 38.3283L95.2461 38.0626L104.006 38.5493L104.009 38.7719C104.01 38.8488 104.123 46.5794 108.75 50.9572C110.761 52.8596 113.343 53.8411 116.403 53.8965C116.718 53.9022 117.032 53.908 117.357 53.8939C118.924 53.8884 121.127 53.1278 122.123 51.7277C123.897 49.2348 123.888 45.4816 123.881 45.0714L123.783 13.1357C123.863 12.35 123.817 10.8487 122.634 9.62349C121.256 8.19934 118.701 7.63056 115.237 7.97153L114.964 7.99828L114.946 1.54265L115.405 1.54131L146.128 1.45117L146.146 7.87009L145.907 7.88129C143.893 7.97751 142.475 8.15852 141.478 8.5564C140.067 9.11934 139.505 10.1214 139.343 11.9586C139.302 12.4192 139.285 12.9306 139.287 13.5023C139.287 13.5023 139.623 41.6638 139.623 41.6639Z" fill="#19105F"/>
<path d="M148.413 60.263C149.043 60.0274 149.626 59.6648 150.165 59.1661C151.261 58.154 151.82 56.9278 151.88 55.4188C151.94 53.9309 151.474 52.6691 150.46 51.5627C149.448 50.4581 148.228 49.8917 146.716 49.8329C145.612 49.79 144.64 50.0338 143.767 50.561C143.448 50.7541 143.139 50.9794 142.845 51.2511C141.751 52.2637 141.19 53.4895 141.13 54.9985C141.071 56.5066 141.535 57.7719 142.547 58.8674C143.561 59.9634 144.788 60.5244 146.296 60.5839C147.061 60.6139 147.763 60.506 148.413 60.263Z" fill="#19105F"/>
<path d="M155.975 91.455C153.785 90.2247 151.344 89.2744 148.799 88.4823C148.145 88.279 147.488 88.0829 146.824 87.8969C138.929 85.7227 135.63 83.9879 135.641 78.8732C135.641 78.8477 135.647 78.8248 135.647 78.7994C135.668 76.9805 136.301 75.3994 137.494 74.2318C138.901 72.8527 140.991 72.1485 143.541 72.1941C150.97 72.3273 153.688 78.5938 155.81 85.042L162.208 85.1566L162.006 72.1766C157.832 69.041 151.649 67.2438 144.576 67.1171C138.331 67.0051 132.93 68.8748 129.355 72.3803C128.862 72.8631 128.417 73.3847 127.996 73.9243C125.663 76.9115 124.424 80.735 124.416 85.125C124.398 95.0788 129.195 100.19 142.122 103.98C150.638 106.467 153.235 108.499 153.227 112.68C153.221 114.77 152.582 116.454 151.329 117.684C150.214 118.774 148.649 119.463 146.739 119.72C146.096 119.807 145.414 119.846 144.696 119.833C138.608 119.724 134.648 116.285 132.146 108.802C131.783 107.715 131.45 106.545 131.147 105.286L123.598 105.151L123.937 109.697L124.658 119.337C129.005 122.694 136.187 124.857 143.428 124.987C149.872 125.101 155.179 123.624 158.934 120.713C159.418 120.337 159.884 119.944 160.316 119.521C161.898 117.969 163.077 116.128 163.859 114.02C164.608 112.003 164.994 109.743 164.999 107.244C165.003 104.587 164.593 102.325 163.886 100.355C162.403 96.2285 159.537 93.4559 155.975 91.455Z" fill="#19105F" stroke="#19105F" stroke-width="0.42682" stroke-miterlimit="10"/>
<path d="M123.438 120.758L122.854 120.301L121.589 103.367L117.234 109.579L118.402 125.199L118.659 125.4C123.151 128.905 130.583 131.167 138.058 131.301L138.069 131.301C145.11 131.425 150.854 129.673 154.811 126.265L159.882 122.347C155.802 125.42 150.164 126.975 143.406 126.855C135.73 126.718 128.084 124.381 123.438 120.758Z" fill="#B1E3FA"/>
<path d="M154.449 86.8908L154.078 85.7598C152.002 79.4257 149.775 74.1748 143.508 74.0625C141.472 74.026 139.844 74.5483 138.804 75.5685C138.033 76.322 137.612 77.3524 137.539 78.5433C137.752 78.5351 137.949 78.5043 138.17 78.5082C143.343 78.6009 146.016 81.902 147.922 86.2725C151.792 87.3866 155.517 88.7776 158.632 90.8484C160.331 89.62 164.071 87.0635 164.071 87.0635L164.063 87.0588L154.449 86.8908Z" fill="#B1E3FA"/>
<path d="M121.346 79.4914C119.249 82.5204 118.137 86.2634 118.129 90.5026C118.118 95.9331 119.556 100.031 122.827 103.268L132.635 103.44L132.933 104.705C133.376 106.568 133.899 108.17 134.475 109.621C135.134 109.837 135.802 110.051 136.505 110.257C145.174 112.787 146.844 114.66 146.931 117.772C148.219 117.532 149.284 117.069 150.02 116.348C150.904 115.481 151.355 114.245 151.36 112.676C151.363 110.229 150.686 108.428 141.598 105.775C127.869 101.748 122.526 95.9578 122.549 85.1213C122.558 80.475 123.843 76.395 126.257 73.1363C126.256 73.1347 126.246 73.1202 126.246 73.1202L121.284 79.5094C121.284 79.5094 121.33 79.4959 121.346 79.4914Z" fill="#B1E3FA"/>
<path d="M80.7185 127.696C79.6026 127.696 78.4825 127.629 77.391 127.496C74.0334 127.086 71.2813 126.107 69.2092 124.587C64.5886 121.218 63.05 116.149 63.1511 112.529C63.3534 105.179 68.4497 97.5489 75.5441 93.9744L75.8182 93.8364L75.6181 93.6034C72.9566 90.5046 70.5636 86.9065 71.0714 81.6059C71.4041 78.1332 72.9754 74.6589 75.383 72.0745C75.473 71.9552 75.5239 71.8907 75.5804 71.8321C78.4741 68.7898 83.3807 66.8213 88.0773 66.8213C88.4421 66.8213 88.8055 66.8331 89.1667 66.8569C89.708 66.8935 90.2276 66.9413 90.7269 67.0023C95.2325 67.5512 98.2559 69.1281 100.53 72.1156C102.13 74.1271 102.863 76.8363 102.584 79.7318C102.383 81.8304 101.25 87.1771 95.0867 91.4706C94.2072 92.0837 93.2517 92.6577 92.2481 93.1759L91.9684 93.3202L92.4496 93.8454C93.5439 95.0353 94.558 96.154 95.5198 97.2315C98.2057 100.239 100.175 102.614 101.906 104.932L102.116 105.213L102.301 104.916C103.842 102.448 104.762 99.8121 104.89 97.4917L104.903 97.2567L100.885 96.9561L100.91 96.2691C100.932 95.6665 100.98 95.1343 101.029 94.6015L101.042 94.4592C101.152 93.2463 101.287 92.3264 101.466 91.5648L101.595 91.0152L111.286 90.9963C112.736 90.9956 114.411 90.9377 115.888 90.8861L116.201 90.8764C117.136 90.8415 117.966 90.8129 118.557 90.8031L119.221 90.792L119.281 91.4532C119.436 93.1814 119.353 95.1343 119.069 96.4281L118.964 96.9086L115.213 97.4736L115.168 97.611C114.855 98.5407 114.522 99.4453 114.151 100.381C113.864 101.105 113.576 101.782 113.295 102.393C111.547 106.192 109.827 108.203 107.834 110.532L106.984 111.536L107.112 111.688C107.622 112.292 107.953 112.662 108.282 113.023C108.691 113.472 109.115 113.937 109.961 115.014C110.715 116.033 110.995 116.357 111.466 116.357L119.086 116.656L119.053 117.373C118.979 119.023 118.62 123.119 118.283 124.594L118.17 125.091L117.663 125.145C117.592 125.153 117.282 125.174 117.282 125.174C116.12 125.277 114.617 125.328 112.69 125.328C109.384 125.328 105.461 125.172 102.865 125.069L102.761 125.065C101.211 125.005 99.8726 124.955 99.0796 124.947L98.6576 124.943L98.4575 124.571C97.9679 123.661 97.963 123.073 97.9595 122.601C97.9546 122.251 97.949 121.888 97.6917 121.368L97.5571 121.096L97.3241 121.292C95.2471 123.041 89.7373 127.679 80.7883 127.696H80.7185ZM80.3126 100.942C79.0774 103.117 78.5473 104.888 78.4853 107.052C78.4616 107.918 78.4895 108.694 78.5697 109.425C78.8075 111.577 79.507 113.12 80.8378 114.428C81.6698 115.245 82.8492 115.911 84.0753 116.255C84.3913 116.344 84.6786 116.406 84.9067 116.433C85.0385 116.45 85.1585 116.456 85.2645 116.456C88.2126 116.451 89.7819 115.966 91.7389 114.464L91.93 114.318L91.4683 113.713C88.2635 109.528 84.2734 104.318 80.6892 100.888L80.466 100.673L80.3126 100.942ZM88.7538 74.2819C87.7663 74.2819 86.8212 74.6826 86.0931 75.4104C85.2275 76.4133 84.7163 77.9955 84.6089 79.102C84.5998 79.2003 84.5998 79.2987 84.5984 79.3963L84.5942 79.6195C84.5154 81.7698 85.2275 83.9095 86.7096 85.9789C87.2404 86.7196 87.8632 87.4512 88.5607 88.1542L88.7232 88.3181L88.8919 88.1626C91.1252 86.1184 92.209 83.8705 92.5173 80.6455C92.7349 78.3571 92.1909 76.8778 91.6957 76.0395C90.803 74.5239 89.8753 74.3443 89.0021 74.2903C88.917 74.2847 88.8354 74.2819 88.7538 74.2819Z" fill="#19105F"/>
<path d="M88.0757 67.532C88.4251 67.532 88.7726 67.5433 89.1182 67.5662C89.6457 67.6019 90.152 67.6483 90.6392 67.7077C94.9786 68.2366 97.8124 69.7226 99.9604 72.5445C101.452 74.4207 102.133 76.9495 101.873 79.6603C101.667 81.8064 100.533 86.8019 94.6781 90.8811C93.8548 91.4547 92.9402 92.0105 91.9197 92.5374L90.808 93.1117L91.6561 94.0326C91.7502 94.1347 91.8293 94.2233 91.9223 94.3245C93.0154 95.5126 94.0265 96.6289 94.986 97.7035C97.397 100.404 99.4536 102.838 101.334 105.356L102.169 106.475L102.906 105.291C104.512 102.72 105.468 99.9617 105.602 97.5279L105.654 96.5937L101.623 96.2914C101.646 95.6489 101.701 95.089 101.752 94.5209C101.846 93.4929 101.969 92.5376 102.16 91.7244L111.286 91.7074C112.772 91.7061 114.496 91.6459 115.983 91.5943L116.224 91.5862C117.155 91.5525 117.98 91.5235 118.568 91.5139C118.718 93.1736 118.638 95.0537 118.371 96.2716L114.673 96.8294L114.489 97.3827C114.15 98.388 113.817 99.2796 113.486 100.114C113.205 100.824 112.925 101.485 112.645 102.092C110.954 105.769 109.276 107.743 107.291 110.064L106.048 111.53L106.565 112.144C107.083 112.759 107.42 113.134 107.753 113.5C108.199 113.99 108.596 114.429 109.398 115.452C110.144 116.459 110.603 117.068 111.466 117.068C111.47 117.068 111.474 117.068 111.478 117.068L118.339 117.337C118.258 119.121 117.897 123.072 117.586 124.432C117.476 124.443 117.335 124.449 117.218 124.459C115.988 124.569 114.41 124.61 112.69 124.61C109.486 124.61 105.784 124.467 102.892 124.352C101.256 124.289 99.9068 124.237 99.0859 124.229C98.679 123.474 98.6761 123.03 98.6726 122.59C98.6676 122.198 98.6607 121.714 98.331 121.047L97.7911 119.96L96.8628 120.743C94.8425 122.444 89.4791 126.963 80.7861 126.978C80.7628 126.978 80.7395 126.978 80.7162 126.978C79.6272 126.978 78.5383 126.913 77.4762 126.783C74.2412 126.389 71.6017 125.454 69.6311 124.007C65.2335 120.801 63.7683 115.984 63.8644 112.545C64.0594 105.447 68.9931 98.0713 75.8649 94.6084L76.9536 94.0599L76.1589 93.1346C73.6013 90.1572 71.2988 86.7099 71.7812 81.6705C72.1029 78.314 73.6085 75.0226 75.9043 72.5578C75.9722 72.4847 76.0242 72.3964 76.0936 72.3249C78.8835 69.3909 83.591 67.532 88.0757 67.532ZM88.6987 89.3057L89.3743 88.6848C91.7489 86.5109 92.901 84.1264 93.2274 80.7094C93.4631 78.2352 92.8599 76.6036 92.3097 75.673C91.2082 73.8027 89.9241 73.6285 89.0451 73.5741C88.9476 73.5677 88.85 73.5644 88.7529 73.5644C87.5887 73.5644 86.4624 74.0269 85.587 74.9018C84.5153 76.1402 84.0066 77.8978 83.8972 79.0293C83.8792 79.2165 83.8867 79.403 83.8799 79.5898C83.7953 81.8958 84.5395 84.1734 86.1285 86.3911C86.6741 87.1525 87.3124 87.9073 88.053 88.6534L88.6987 89.3057ZM85.2588 117.167C85.2661 117.167 85.2734 117.167 85.2805 117.167C88.3577 117.162 90.0958 116.622 92.1734 115.027L92.9295 114.449L92.0352 113.276C88.8143 109.071 84.8047 103.836 81.1818 100.368L80.2983 99.5219L79.6919 100.584C78.3937 102.87 77.8366 104.735 77.7703 107.028C77.7461 107.927 77.7756 108.746 77.8588 109.5C78.1159 111.83 78.9022 113.525 80.3359 114.933C81.3994 115.979 82.7643 116.626 83.881 116.939C84.2208 117.035 84.5433 117.105 84.8202 117.139C84.9802 117.159 85.1278 117.167 85.2588 117.167ZM88.0757 66.1036C83.1931 66.1036 78.0835 68.1593 75.0585 71.3407C74.9908 71.4102 74.9201 71.4981 74.8522 71.5884L74.8587 71.5847C72.347 74.2813 70.7069 77.9079 70.3594 81.5342C69.851 86.8441 72.1951 90.6178 74.6901 93.6103C67.6495 97.4058 62.6402 105.091 62.4365 112.506C62.3303 116.307 63.9434 121.628 68.7896 125.161C70.9579 126.753 73.8236 127.777 77.3034 128.201C78.4209 128.337 79.5691 128.406 80.7162 128.406L80.7895 128.406C89.2964 128.392 94.7703 124.327 97.2326 122.295C97.2416 122.395 97.2429 122.496 97.2443 122.608C97.2484 123.125 97.2541 123.841 97.8284 124.906L98.2286 125.649L99.0723 125.657C99.8624 125.665 101.213 125.717 102.777 125.777L102.837 125.78C105.442 125.883 109.38 126.039 112.69 126.039C114.639 126.039 116.161 125.988 117.345 125.882L117.476 125.873C117.566 125.867 117.657 125.86 117.736 125.852L118.751 125.745L118.979 124.75C119.329 123.216 119.688 119.121 119.766 117.402L119.831 115.967L118.395 115.91L111.534 115.641L111.5 115.639L111.467 115.64C111.439 115.64 111.429 115.637 111.429 115.637C111.267 115.576 110.833 114.99 110.547 114.602L110.535 114.586L110.522 114.57C109.666 113.479 109.23 113.001 108.809 112.538C108.564 112.27 108.295 111.972 107.919 111.532L108.38 110.987C110.319 108.721 112.155 106.576 113.943 102.689C114.227 102.071 114.52 101.382 114.814 100.641C115.155 99.7797 115.463 98.9494 115.75 98.1115L118.584 97.684L119.556 97.5374L119.766 96.5776C120.064 95.2184 120.152 93.1805 119.991 91.3859L119.872 90.0639L118.545 90.0857C117.95 90.0954 117.115 90.1247 116.172 90.1588L115.935 90.1667C114.417 90.2194 112.736 90.2777 111.285 90.279L102.158 90.2961L101.028 90.2982L100.77 91.3976C100.583 92.1928 100.443 93.1442 100.33 94.3918L100.317 94.5339C100.268 95.0641 100.218 95.6124 100.196 96.2407L100.147 97.613L101.517 97.7157L104.139 97.9125C103.948 99.8124 103.219 101.914 102.053 103.937C100.414 101.782 98.5379 99.5371 96.0515 96.7522C95.0941 95.68 94.1337 94.62 93.1204 93.5172C93.9537 93.0628 94.7503 92.5717 95.4947 92.053C101.902 87.5885 103.084 81.9944 103.295 79.7965C103.59 76.7158 102.803 73.8245 101.078 71.6555C98.6971 68.5265 95.5252 66.8643 90.8121 66.2898C90.3092 66.2285 89.7867 66.1798 89.2148 66.1411C88.8395 66.1162 88.457 66.1036 88.0757 66.1036ZM86.6333 75.8762C87.2211 75.3061 87.9718 74.9928 88.7529 74.9928C88.8186 74.9928 88.8846 74.995 88.9506 74.9994C89.5574 75.0369 90.3047 75.0832 91.0789 76.3978C91.5213 77.1462 92.0053 78.4761 91.8055 80.574C91.5278 83.4805 90.6328 85.4671 88.7446 87.3146C88.2032 86.7419 87.7153 86.1532 87.2897 85.5591C85.9013 83.6216 85.2344 81.6308 85.3073 79.6421C85.3102 79.5617 85.3111 79.4814 85.3119 79.4011C85.3126 79.3229 85.3115 79.2445 85.319 79.166C85.4136 78.1877 85.8562 76.7989 86.6333 75.8762ZM85.2588 117.167V115.738C85.1758 115.738 85.0864 115.733 84.9931 115.721C84.8585 115.705 84.6234 115.664 84.267 115.564C83.7399 115.416 82.3998 114.96 81.3375 113.915C80.1316 112.73 79.4968 111.321 79.2785 109.343C79.2019 108.649 79.1756 107.904 79.1982 107.067C79.2526 105.185 79.6624 103.671 80.6368 101.831C84.0645 105.219 87.84 110.148 90.8983 114.141L90.9241 114.175C89.2766 115.347 87.8316 115.734 85.2782 115.738L85.2588 117.167Z" fill="white"/>
<path d="M74.2615 71.5215C71.8234 74.2533 70.2312 77.8413 69.8837 81.4897C69.3832 86.7137 71.5373 90.477 73.9545 93.4702C71.9661 94.603 70.185 96.0398 68.6099 97.6562C66.2442 94.6928 64.3765 91.2265 64.83 86.4789C65.1663 82.9697 66.7308 79.5365 69.0976 76.9397L69.095 76.9406L69.1073 76.9277C69.2116 76.8136 69.293 76.6777 69.4004 76.5671C69.5251 76.4358 69.6755 76.3207 69.8072 76.1936C69.8072 76.1936 74.2615 71.5215 74.2615 71.5215Z" fill="#B1E3FA"/>
<path d="M77.2468 128.678C73.6826 128.243 70.7411 127.19 68.5063 125.549C63.5135 121.908 61.849 116.418 61.9558 112.495C62.0689 108.432 63.5469 104.393 65.9582 100.89C60.6539 104.933 57.08 111.205 56.9089 117.419C56.8073 121.101 58.3723 126.253 63.0684 129.678C65.5695 131.515 68.7186 132.307 71.3592 132.629C72.6758 132.79 73.8658 132.834 74.7868 132.832C82.9456 132.818 88.156 129.11 91.0601 126.711C88.2571 127.966 84.881 128.881 80.7921 128.888C79.6008 128.89 78.4074 128.819 77.2468 128.678Z" fill="#B1E3FA"/>
<path d="M102.977 126.267C101.083 126.194 99.6721 126.139 98.901 126.137L97.9862 126.142L97.5273 125.345C97.0146 124.468 96.8475 123.784 96.7934 123.254C95.3543 124.367 93.5964 125.521 91.5195 126.501C91.6885 126.894 91.7142 127.186 91.7174 127.506C91.722 128.037 91.7272 128.696 92.3496 129.766L92.5329 130.082L92.899 130.081C93.6945 130.081 95.1619 130.139 96.9663 130.21C101.543 130.39 108.459 130.663 111.913 130.254L112.331 130.204L118.989 126.189L118.028 126.304C114.509 126.721 107.57 126.449 102.977 126.267Z" fill="#B1E3FA"/>
<path d="M79.6798 107.082C79.5948 110.177 80.1911 112.118 81.6728 113.573C82.8837 114.762 84.6388 115.273 85.269 115.259C87.5263 115.256 88.832 114.964 90.2337 114.065C87.3689 110.327 83.9324 105.871 80.7639 102.642C80.1342 103.949 79.7295 105.304 79.6798 107.082Z" fill="#B1E3FA"/>
<path d="M89.1724 75.5034L88.9288 75.4825C88.2008 75.4333 87.4941 75.6966 86.9838 76.2057C86.303 76.9952 85.8871 78.2981 85.7973 79.2146C85.5624 81.6823 86.5579 84.1704 88.7578 86.6207C90.3211 84.9543 91.0821 83.1287 91.3307 80.5307C91.5175 78.5648 91.0722 77.3326 90.6683 76.6439C90.1075 75.6921 89.6228 75.5583 89.1724 75.5034Z" fill="#B1E3FA"/>
<path d="M100.648 89.9287L95.4141 95.3261C97.9201 98.0972 100.053 100.565 101.986 103.064C102.824 101.472 103.38 99.8561 103.602 98.3559L99.663 98.0582L99.7049 96.5426C99.7666 94.3416 99.9846 92.5354 100.37 91.0156C100.37 91.0156 100.648 89.9287 100.648 89.9287Z" fill="#B1E3FA"/>
<path d="M6.2249 127.397L6.20083 118.822L7.0043 118.652C7.06428 118.64 7.12949 118.631 7.1947 118.625C7.60166 118.549 8.04734 118.492 8.49719 118.46C8.99238 118.425 9.49385 118.409 9.96951 118.395C11.1036 118.361 12.17 118.33 12.4333 118.015C13.0313 117.3 13.3326 116.309 13.3291 115.07L13.2252 80.9165C13.2214 79.3535 12.9277 78.2226 12.3279 77.4582C12.0347 77.0844 10.3151 76.8145 8.79779 76.5766C7.63863 76.3942 6.44006 76.2056 5.48839 75.9447L4.74874 75.7418L4.72363 67.1802L39.3904 66.4932L39.6764 66.4922C43.4098 66.4922 46.5009 67.0341 48.8632 68.1033C51.2889 69.2039 53.2195 70.8889 54.6032 73.111C55.9856 75.3352 56.69 77.93 56.6984 80.8245C56.7047 83.1093 56.298 85.2365 55.489 87.1482C54.6786 89.0634 53.564 90.6522 52.1754 91.8707C51.6802 92.3045 51.0504 92.7558 50.2491 93.2495C49.2419 93.8717 48.0988 94.4533 46.8441 94.9841C46.8922 94.9981 46.9417 95.012 46.9926 95.0239C51.0783 96.001 54.1408 97.7704 56.0937 100.283C58.2028 102.997 59.2796 106.732 59.295 111.384C59.3041 114.206 58.9491 116.552 58.239 118.357C57.5283 120.163 56.4877 121.773 55.1465 123.14C54.4449 123.855 53.6331 124.521 52.6657 125.175C51.8741 125.71 51.2011 126.102 50.5483 126.409C49.2384 127.026 47.3497 127.562 44.9373 128.002C42.499 128.447 37.3901 128.542 32.2318 128.578H32.2053L6.2249 127.397ZM30.8962 118.901L32.7974 118.888C33.1294 118.886 33.4747 118.866 33.8541 118.826C34.9735 118.709 35.9374 118.419 36.7185 117.963C37.7424 117.367 38.5486 116.287 39.1156 114.755C39.6952 113.199 39.9854 111.297 39.9784 109.097C39.97 106.115 39.3528 103.898 38.1441 102.505C36.9563 101.136 35.2587 100.442 33.098 100.442V99.4324L33.0401 100.442L30.8411 100.456L30.8962 118.901ZM30.8132 90.9989L32.9251 90.9842C32.9683 90.9696 33.0513 90.9584 33.135 90.9542C34.0215 90.9159 34.8612 90.699 35.6284 90.3105C36.4869 89.8746 37.2255 89.1144 37.8233 88.0507C38.4189 86.985 38.7181 85.4569 38.7118 83.5131C38.7034 80.7715 38.1852 78.9372 37.1265 77.9056C36.0929 76.8982 34.7782 76.3873 33.2194 76.3873V75.3784L33.181 76.3876L30.7672 76.4033L30.8132 90.9989Z" fill="#19105F"/>
<path d="M39.6776 67.5016C43.2691 67.5016 46.2199 68.0147 48.4481 69.0227C50.6878 70.0395 52.471 71.5949 53.7468 73.6449C55.0285 75.7065 55.6819 78.1229 55.6896 80.8277C55.6955 82.9758 55.3156 84.9704 54.5604 86.7549C53.8101 88.529 52.7832 89.9952 51.5102 91.1118C51.0112 91.55 50.3952 91.9745 49.7199 92.3913C48.6422 93.0563 47.3712 93.6957 45.8657 94.295L43.419 95.2675L45.9983 95.7976C46.2689 95.8532 46.4958 95.9426 46.7574 96.0051C50.5668 96.9165 53.4635 98.5424 55.2979 100.903C57.2676 103.439 58.2712 106.966 58.286 111.388C58.2951 114.081 57.9641 116.302 57.3005 117.987C56.6394 119.668 55.6724 121.164 54.4263 122.433C53.7159 123.158 52.9287 123.779 52.1009 124.339C51.4669 124.767 50.8149 125.169 50.1197 125.496C48.8858 126.077 47.0805 126.586 44.7561 127.01C42.3871 127.442 37.3145 127.534 32.2251 127.57L7.23182 126.433L7.21269 119.64C7.25884 119.63 7.31294 119.63 7.35987 119.621C7.74561 119.549 8.1511 119.497 8.56822 119.467C9.05014 119.433 9.53796 119.417 10.0003 119.404C11.5413 119.358 12.6528 119.326 13.2078 118.662C13.9618 117.761 14.3431 116.552 14.3388 115.068L14.2349 80.9141C14.2302 79.117 13.8653 77.7822 13.1219 76.8352C12.608 76.1804 11.339 75.9542 8.95483 75.5799C7.8197 75.4015 6.65086 75.2171 5.75587 74.9715L5.74525 71.3326L5.73594 68.1699L39.4109 67.5025C39.5002 67.5019 39.5891 67.5016 39.6776 67.5016ZM29.8081 92.0151L32.9324 91.9936C33.0153 91.9931 33.0953 91.9662 33.1779 91.9627C34.1747 91.9197 35.1525 91.6832 36.0851 91.2105C37.1259 90.6823 38.0062 89.7858 38.7031 88.5455C39.3849 87.3251 39.7287 85.6307 39.7213 83.5096C39.7123 80.4846 39.0951 78.4152 37.8312 77.1833C36.6016 75.9849 35.0526 75.3787 33.2198 75.3787C33.205 75.3787 33.1904 75.3787 33.1756 75.3788L29.7556 75.401L29.7714 80.4058L29.8081 92.0151ZM29.891 119.917L32.8049 119.898C33.2044 119.895 33.5866 119.869 33.9586 119.83C35.212 119.7 36.3105 119.37 37.2276 118.835C38.4599 118.117 39.4124 116.862 40.0627 115.106C40.6844 113.436 40.9952 111.413 40.9881 109.094C40.9786 105.863 40.2773 103.423 38.9066 101.844C37.5175 100.242 35.5655 99.4323 33.0969 99.4323C33.0762 99.4323 33.0559 99.4323 33.0351 99.4325L29.8293 99.4532L29.8444 104.436L29.891 119.917ZM39.6776 65.4834L39.3968 65.4844L5.69595 66.1521L3.71191 66.1914L3.71776 68.1759L3.72707 71.3385L3.73769 74.9774L3.74217 76.5117L5.22179 76.9178C6.23076 77.1946 7.45626 77.3873 8.64142 77.5736C9.65179 77.7322 11.1522 77.9677 11.6063 78.179C12.0082 78.7596 12.2135 79.6806 12.2167 80.9193L12.3206 115.074C12.3233 115.998 12.1312 116.73 11.7495 117.253C11.4135 117.343 10.5743 117.368 9.9468 117.386C9.42968 117.402 8.92958 117.418 8.42545 117.454C7.96117 117.487 7.50053 117.544 7.05492 117.625C6.96451 117.635 6.87985 117.648 6.80076 117.664L5.18988 118L5.19451 119.645L5.21364 126.439L5.21905 128.362L7.14014 128.449L32.1334 129.586L32.1863 129.588L32.2393 129.588C38.254 129.545 42.746 129.428 45.1186 128.995C47.6186 128.539 49.5906 127.976 50.9795 127.322C51.6781 126.994 52.394 126.577 53.2312 126.011C54.2561 125.318 55.1184 124.61 55.8672 123.847C57.3033 122.384 58.4176 120.661 59.1786 118.726C59.9354 116.804 60.3141 114.332 60.3041 111.381C60.2878 106.501 59.1398 102.559 56.8918 99.6647C55.2092 97.4998 52.7832 95.8542 49.6609 94.755C50.0489 94.545 50.4222 94.3294 50.7797 94.1088C51.6313 93.5833 52.3058 93.099 52.8419 92.6282C54.3455 91.3094 55.5494 89.5975 56.4192 87.541C57.2808 85.5051 57.7145 83.2444 57.7078 80.8222C57.699 77.7367 56.943 74.9634 55.4608 72.5793C53.97 70.1841 51.8915 68.3695 49.2823 67.185C46.7855 66.0555 43.5549 65.4834 39.6776 65.4834ZM31.7802 77.4061L33.1887 77.397C34.5244 77.397 35.5723 77.7999 36.4226 78.6287C37.2651 79.4498 37.6959 81.094 37.7032 83.5156C37.7092 85.2596 37.4457 86.6582 36.9412 87.5612C36.4457 88.4431 35.8496 89.0668 35.1718 89.4108C34.5342 89.734 33.8338 89.9143 33.0909 89.9464C32.9723 89.9514 32.8709 89.9645 32.7953 89.9763L31.8199 89.983L31.7896 80.3994L31.7802 77.4061ZM31.8535 101.458L33.0482 101.451L33.0969 101.45C34.9792 101.45 36.3808 102.012 37.3818 103.166C38.4131 104.354 38.9621 106.406 38.97 109.1C38.9763 111.178 38.7076 112.961 38.1713 114.402C37.686 115.712 37.0271 116.616 36.2115 117.091C35.5531 117.475 34.7249 117.721 33.7493 117.823C33.4045 117.859 33.091 117.877 32.7911 117.879L31.9031 117.885L31.8625 104.43L31.8535 101.458Z" fill="white"/>
<path d="M46.3179 129.785L46.3155 129.882L51.9381 126.336L51.9224 126.327C51.5522 126.537 51.177 126.74 50.7899 126.922C49.4331 127.56 47.4994 128.111 45.0379 128.56C42.6912 128.988 38.2068 129.103 32.1958 129.144L5.66245 127.94L5.63515 118.46L5.66026 118.452L5.64478 118.442L1.47656 123.082L1.50121 131.235L27.2437 132.405C32.6218 132.369 37.5455 132.273 39.9513 131.834C42.3552 131.396 44.2082 130.87 45.5093 130.257C45.7944 130.123 46.0432 129.935 46.3179 129.785Z" fill="#B1E3FA"/>
<path d="M7.55688 81.3708C8.18145 82.1672 8.49716 83.3659 8.50191 84.9659L8.60052 117.891C9.06088 117.862 9.51867 117.843 9.95427 117.83C10.7312 117.807 11.7936 117.776 12.0358 117.617C12.5093 117.042 12.7679 116.175 12.7647 115.072L12.6608 80.9188C12.657 79.5061 12.3951 78.4594 11.8843 77.8086C11.5918 77.5885 9.85882 77.3163 8.7113 77.1354C7.26654 76.9088 5.77208 76.6734 4.70492 76.292L4.18348 76.1059L4.15639 66.6483L0 71.4469L0.023727 79.5997C2.26315 80.4005 6.93118 80.5752 7.55688 81.3708Z" fill="#B1E3FA"/>
<path d="M32.3336 81.7958C33.4259 82.8612 33.9773 84.7825 33.9859 87.5605C33.9889 88.6021 33.9015 89.5158 33.7337 90.3154C34.2892 90.2238 34.8395 90.0761 35.3706 89.8067C36.1276 89.422 36.7864 88.739 37.3267 87.7753C37.8745 86.7953 38.1506 85.361 38.1447 83.5139C38.1376 80.9695 37.6614 79.2189 36.7302 78.3109C35.7828 77.3873 34.6186 76.938 33.1828 76.9535L31.334 76.9655L31.3462 81.0393C31.6949 81.253 32.0277 81.4982 32.3336 81.7958Z" fill="#B1E3FA"/>
<path d="M33.0449 101.007L31.4102 101.018L31.4215 104.963C32.1599 105.315 32.8197 105.779 33.3651 106.408C34.6154 107.849 35.2447 110.095 35.2542 113.145C35.2597 115.048 35.0356 116.702 34.6085 118.136C35.295 117.995 35.911 117.78 36.4343 117.475C37.3429 116.945 38.0666 115.964 38.5876 114.559C39.141 113.065 39.4203 111.228 39.414 109.098C39.4047 106.256 38.8339 104.163 37.7164 102.875C36.6167 101.605 35.0883 100.989 33.0449 101.007Z" fill="#B1E3FA"/>
<path d="M38.1492 144.389L38.2663 144.506V147.558L38.1492 147.675H30.2854V150.61H36.0366L36.1538 150.727V153.778L36.0366 153.895H30.2854V157.534H38.3835L38.5014 157.651V160.703L38.3835 160.821H27.1162L26.999 160.703V144.506L27.1162 144.389H38.1492Z" fill="#19105F"/>
<path d="M50.281 148.495C49.7642 147.79 49.0605 147.439 48.4732 147.439C47.6516 147.439 47.2994 147.907 47.2994 148.612C47.2994 150.489 54.2244 150.489 54.2244 155.889C54.2244 158.705 51.8768 161.17 48.7082 161.17C46.2435 161.17 44.013 159.88 43.1914 157.532L45.8912 155.724H46.1256C46.7128 157.298 47.7688 157.767 48.7082 157.767C49.8814 157.767 50.703 157.062 50.703 155.889C50.703 153.071 43.7787 153.19 43.7787 148.612C43.7787 145.913 45.8675 144.035 48.4732 144.035C50.4686 144.035 51.7596 144.857 53.0506 146.617L50.5153 148.495H50.281Z" fill="#19105F"/>
<path d="M71.2425 144.389L71.3597 144.506V147.558L71.2425 147.675H66.4308V160.703L66.3129 160.821H63.2616L63.1444 160.703V147.675H58.332L58.2148 147.558V144.506L58.332 144.389H71.2425Z" fill="#19105F"/>
<path d="M77.1099 157.532L77.2278 157.649V160.701L77.1099 160.819H74.0586L73.9414 160.701V157.649L74.0586 157.532H77.1099Z" fill="#19105F"/>
<path d="M96.9407 144.388V160.702L96.8235 160.82H93.7722L93.6543 160.702V147.041L93.7722 146.805L96.8235 144.271L96.9407 144.388Z" fill="#19105F"/>
<path d="M113.251 144.389L113.368 144.506L111.373 147.675H107.852L107.735 150.023C110.551 149.788 113.368 151.9 113.368 155.421C113.368 158.59 110.669 161.172 107.383 161.172C105.387 161.172 103.509 160.351 102.336 158.59L104.331 156.008H104.566C105.387 157.3 106.209 157.886 107.383 157.886C108.674 157.886 109.847 156.83 109.847 155.421C109.847 153.895 108.674 152.793 107.148 152.793C105.974 152.793 105.504 152.956 104.213 153.543L104.096 153.426L104.801 144.506L104.918 144.389H113.251Z" fill="#19105F"/>
<path d="M124.431 144.388V160.702L124.314 160.82H121.262L121.145 160.702V147.041L121.262 146.805L124.314 144.271L124.431 144.388Z" fill="#19105F"/>
<path d="M140.743 144.389L140.86 144.506L138.865 147.675H135.344L135.227 150.023C138.043 149.788 140.86 151.9 140.86 155.421C140.86 158.59 138.161 161.172 134.875 161.172C132.879 161.172 131.001 160.351 129.828 158.59L131.823 156.008H132.058C132.879 157.3 133.701 157.886 134.875 157.886C136.166 157.886 137.34 156.83 137.34 155.421C137.34 153.895 136.166 152.793 134.64 152.793C133.466 152.793 132.997 152.956 131.706 153.543L131.588 153.426L132.293 144.506L132.41 144.389H140.743Z" fill="#19105F"/>
<path d="M96.8172 144.272L96.7811 147.551L91.7096 147.531L91.5953 147.412L90.7148 144.383L90.8305 144.269L96.8172 144.272Z" fill="#19105F"/>
<path d="M124.304 144.272L124.267 147.551L119.196 147.531L119.082 147.412L118.201 144.383L118.317 144.269L124.304 144.272Z" fill="#19105F"/>
</svg>
