<svg width="235" height="81" viewBox="0 0 235 81" fill="none" xmlns="http://www.w3.org/2000/svg">
<g clip-path="url(#clip0_59_11214)">
<path d="M82.3657 75.85C79.8333 76.673 76.9626 77.606 75.3309 76.7112C74.7456 76.391 74.3525 75.8611 74.1629 75.1378C74.1627 75.1371 74.1622 75.1361 74.1621 75.1354C74.162 75.135 74.162 75.1346 74.1619 75.1342L68.6569 54.743C64.9824 54.3366 58.7045 51.6764 56.6973 50.7927L62.4986 76.3773C68.9973 78.0959 85.4819 81.3387 86.9382 76.5552C87.0949 76.0403 87.2227 75.3687 86.9406 75.0917C86.3842 74.5449 84.2491 75.2384 82.3657 75.85Z" fill="white"/>
<path d="M159.714 41.4616C160.708 42.2727 162.264 42.9609 162.282 42.9693C163.31 43.5013 164.664 43.5154 165.972 43.5286C167.475 43.545 168.896 43.5598 169.667 44.3805C170.072 44.8111 170.248 45.4024 170.209 46.188C170.178 46.7911 170.01 47.3017 169.735 47.7359L169.744 47.7396C169.688 47.8767 164.611 60.2728 162.581 67.3231C163.822 67.9286 169.754 70.6525 173.771 69.5017C173.945 68.937 174.479 67.2139 175.199 64.9706C175.208 64.9445 175.216 64.918 175.225 64.8918C175.294 64.6764 175.364 64.4572 175.437 64.2329C175.457 64.1692 175.478 64.1053 175.499 64.0409C175.563 63.8427 175.628 63.6421 175.695 63.438C175.722 63.3546 175.749 63.2709 175.776 63.1866C175.833 63.0122 175.891 62.8364 175.949 62.6586C175.988 62.54 176.027 62.4216 176.066 62.3016C176.12 62.1377 176.174 61.9722 176.229 61.806C176.269 61.685 176.309 61.5646 176.349 61.4426C176.404 61.2781 176.459 61.1124 176.514 60.9463C176.559 60.8118 176.604 60.678 176.649 60.5426C176.7 60.3888 176.752 60.2342 176.804 60.0795C176.852 59.9386 176.899 59.7982 176.946 59.6567C177 59.4968 177.055 59.3365 177.109 59.1762C177.157 59.0357 177.205 58.8957 177.252 58.7552C177.306 58.5981 177.36 58.4412 177.414 58.2842C177.501 58.0312 177.588 57.7791 177.675 57.5271C177.737 57.3498 177.798 57.1721 177.86 56.9957C177.908 56.8589 177.956 56.7239 178.004 56.5879C178.059 56.4313 178.114 56.2743 178.169 56.1189C178.215 55.9892 178.261 55.8616 178.307 55.733C178.366 55.5667 178.425 55.4005 178.485 55.2363C178.527 55.1202 178.568 55.0063 178.61 54.8915C178.671 54.7228 178.732 54.5546 178.793 54.3888C178.836 54.273 178.878 54.1595 178.92 54.0452C178.98 53.8848 179.039 53.7253 179.098 53.5682C179.141 53.4523 179.184 53.3386 179.228 53.2247C179.285 53.0718 179.343 52.9207 179.4 52.7716C179.441 52.6666 179.481 52.563 179.521 52.4599C179.581 52.3059 179.64 52.1546 179.699 52.0055C179.737 51.9086 179.775 51.8126 179.813 51.7178C179.872 51.5715 179.93 51.4289 179.987 51.2882C180.023 51.1994 180.06 51.1105 180.095 51.0241C180.155 50.8801 180.214 50.7415 180.272 50.6045C180.304 50.5293 180.336 50.4529 180.368 50.3798C180.429 50.2386 180.488 50.1045 180.547 49.972C180.575 49.9103 180.603 49.8464 180.63 49.7867C180.693 49.6479 180.754 49.5179 180.815 49.3903C180.836 49.3451 180.859 49.2964 180.88 49.2526C180.953 49.1014 181.024 48.9605 181.093 48.8276C181.1 48.8139 181.108 48.7979 181.115 48.7844C181.192 48.6379 181.267 48.5016 181.338 48.38C180.578 48.0067 178.59 47.0558 176.024 45.9746C171.885 44.4345 166.305 42.5212 161.931 41.6165C161.152 41.5158 160.407 41.4597 159.714 41.4616Z" fill="white"/>
<path d="M164.537 49.0992C164.262 49.0001 141.647 40.6083 120.107 39.5091C96.6201 38.3105 72.1821 44.7642 71.9374 44.8297C67.2379 46.7511 68.4753 51.4589 68.5306 51.6586L74.3603 73.255C74.4436 73.0886 74.5372 72.9238 74.6569 72.7632C77.4746 68.9852 91.2006 66.6761 115.456 65.8999C137.287 65.1955 154.123 73.594 154.309 73.6876C154.339 73.6876 156.769 74.3007 158.807 73.0807C160.099 72.3068 160.976 70.9573 161.415 69.0702C162.658 63.7209 167.076 52.5375 168.594 48.7622C166.949 49.5901 164.643 49.1224 164.537 49.0992Z" fill="white"/>
<path d="M21.1319 12.2317C25.4402 12.2317 31.1792 10.4609 33.326 7.49738C34.2058 6.28278 34.4185 4.95077 33.9572 3.53881C33.6322 2.54381 33.0782 1.9131 32.2624 1.61121C29.5101 0.591242 24.6073 3.58328 22.2485 5.01942C21.7865 5.30103 21.4132 5.52765 21.1615 5.66221C19.529 6.53357 16.5095 6.79061 15.3345 6.85965L17.5169 12.4421L21.1124 12.2325L21.1319 12.573V12.2317Z" fill="white"/>
<path d="M231.99 30.3153C208.178 16.6326 164.162 0.661011 118.449 0.661011C80.5913 0.661011 42.9555 14.5076 20.4686 22.7805C16.2008 24.3508 12.515 25.707 9.32332 26.796C9.09564 26.8328 5.50322 27.2821 2.8335 25.5901C6.46405 33.1527 13.9639 53.2979 14.3634 54.3733C19.3364 61.3013 25.4011 57.3104 25.6567 57.1372C26.2325 56.8821 78.1048 34.733 118.449 34.733C169.171 34.733 218.256 61.313 218.746 61.5813L218.584 61.878L218.774 61.5993C218.936 61.7094 222.471 64.1633 223.309 67.7584C225.487 60.7426 233.415 41.6696 233.799 40.7455C235.682 32.4064 232.027 30.3352 231.99 30.3153Z" fill="white"/>
<path d="M200.472 68.2713C197.33 65.8647 190.918 62.8302 187.132 63.9621C186.21 64.2377 185.506 64.7589 185.016 65.5016L184.541 66.4552C184.205 67.4235 184.271 68.2779 184.747 69.0647C186.52 72.0009 193.285 72.9994 195.831 73.3762C196.088 73.4137 196.301 73.4449 196.462 73.4714C198.287 73.7725 200.841 75.4052 201.816 76.0652L203.471 70.3043L200.489 68.283L200.68 68.0007L200.472 68.2713Z" fill="white"/>
<path d="M84.978 73.2405C85.5634 73.0857 86.0334 72.9978 86.428 72.9649L86.1809 72.0131C85.4727 72.0545 84.5334 72.3026 83.6034 72.5914L83.4647 72.1468C84.3805 71.8616 85.3065 71.6036 86.0603 71.5484L85.8084 70.5781C85.4192 70.5974 84.9281 70.687 84.3086 70.8511L84.1902 70.4002C84.7987 70.2397 85.2846 70.1472 85.6889 70.1178L85.4375 69.1495C79.8427 70.2049 76.4145 71.5466 75.2026 73.171C74.7795 73.7389 74.654 74.3248 74.8208 74.9621C74.9634 75.5059 75.2369 75.8819 75.6569 76.112C77.033 76.8648 79.7533 75.9817 82.1548 75.2008C84.1263 74.5604 85.7574 74.0415 86.7701 74.2827L86.5465 73.4214C86.1662 73.4458 85.6986 73.5324 85.0964 73.6914L84.978 73.2405Z" fill="#19105F"/>
<path d="M159.881 45.491L159.656 45.8982C159.534 45.8312 159.372 45.757 159.2 45.6783C159.009 45.5904 158.818 45.5003 158.641 45.4064C158.573 45.8427 158.522 46.1419 158.48 46.3481C162.319 47.5522 164.654 48.4183 164.726 48.4452C164.747 48.4452 167.326 48.9593 168.692 47.9054C169.215 47.5029 169.488 46.9295 169.527 46.1533C169.558 45.5628 169.441 45.1361 169.17 44.8475C168.598 44.239 167.319 44.225 165.965 44.2109C164.576 44.1969 163.141 44.1813 161.989 43.5853C161.921 43.5556 160.222 42.8027 159.152 41.8761C159.101 42.2365 159.054 42.5667 159.011 42.8761C159.453 43.4285 160.341 43.8462 161.013 44.0986L160.849 44.5354C160.236 44.3042 159.466 43.9338 158.93 43.4446C158.846 44.0261 158.775 44.5167 158.716 44.9129C158.919 45.034 159.178 45.1558 159.394 45.2547C159.578 45.3389 159.75 45.4185 159.881 45.491Z" fill="#19105F"/>
<path d="M193.927 51.5626L193.874 52.026C193.085 51.9347 192.366 51.9437 191.717 52.0295L191.031 53.4084C192.455 53.2756 194.137 53.4998 196.07 54.1167L195.928 54.5613C193.955 53.9314 192.189 53.7098 190.789 53.8943L190.078 55.3225C190.968 55.1797 191.984 55.1896 193.122 55.3742L193.047 55.8344C191.815 55.6341 190.734 55.6381 189.822 55.8385L189.154 57.18C190.655 56.9433 192.549 57.168 194.673 57.8455L194.531 58.2901C192.314 57.581 190.372 57.3806 188.895 57.7011L188.173 59.1531C189.173 58.9068 190.355 58.8832 191.711 59.1006L191.638 59.5609C190.147 59.3199 188.897 59.3877 187.886 59.7286L186.975 61.5612C188.99 60.9602 191.476 61.4664 193.277 62.0408L193.135 62.4855C190.463 61.6318 188.238 61.5155 186.686 62.141L185.883 63.7559C186.203 63.5725 186.553 63.4222 186.936 63.3077C190.988 62.0975 197.52 65.1568 200.874 67.7217L208.366 72.799C208.45 72.856 216.513 78.3392 220.535 74.1579C222.217 72.4113 222.971 70.5672 222.778 68.6778C222.401 65.0051 218.571 62.2894 218.403 62.1724C218.012 61.9595 207.952 56.5346 192.417 50.6224L191.958 51.5443C192.568 51.4885 193.217 51.4812 193.927 51.5626ZM211.988 72.8419C215.382 73.9957 217.971 73.6774 219.682 71.9027L220.017 72.2257C218.898 73.3888 217.397 73.9746 215.587 73.9746C214.453 73.9746 213.197 73.7453 211.839 73.2835L211.988 72.8419Z" fill="#19105F"/>
<path d="M35.1339 16.1954L34.8658 15.8147C35.6398 15.2663 36.2482 14.6695 36.6948 14.0411L36.3248 12.6562C35.6481 13.7275 34.5433 14.6925 33.0307 15.5303L32.8048 15.1223C34.4343 14.2203 35.5584 13.1749 36.1537 12.0159L35.8342 10.8197C35.3487 11.576 34.6515 12.2856 33.7383 12.9326L33.4687 12.5519C34.4905 11.8284 35.2182 11.0287 35.6626 10.1775L35.2752 8.72726C34.6748 10.0554 33.4416 11.267 31.6336 12.2676L31.4076 11.8596C33.3963 10.7593 34.6486 9.41081 35.0673 7.94941L34.6507 6.39001C34.4842 6.9076 34.2309 7.41149 33.8785 7.89793C31.6058 11.0353 25.6214 12.9111 21.1435 12.914L12.114 13.4381C11.9706 13.4338 1.43081 12.9151 0.775483 18.6511C0.491845 21.1318 1.00535 23.0356 2.30121 24.3102C4.72226 26.6922 9.12333 26.1395 9.16774 26.1349C12.287 25.0634 15.9696 23.7088 20.2335 22.14C25.2106 20.3089 30.9306 18.205 37.2284 16.0386L36.8491 14.6186C36.3992 15.1766 35.8265 15.7054 35.1339 16.1954ZM2.5303 20.503C2.50303 20.7417 2.48355 20.9738 2.4703 21.1988L2.00588 21.1715C2.01913 20.9387 2.04017 20.698 2.06744 20.4504C2.38848 17.6459 4.83603 15.7745 9.14748 15.0381L9.2254 15.4976C6.37656 15.9843 2.90199 17.2477 2.5303 20.503Z" fill="#19105F"/>
<path d="M161.013 44.0987C160.341 43.8463 159.453 43.4287 159.01 42.8762C158.982 43.0786 158.955 43.2628 158.929 43.4447C159.466 43.934 160.236 44.3043 160.849 44.5356L161.013 44.0987Z" fill="white"/>
<path d="M191.637 59.5609L191.711 59.1006C190.354 58.8832 189.173 58.9068 188.172 59.153L187.886 59.7286C188.896 59.3877 190.147 59.3199 191.637 59.5609Z" fill="white"/>
<path d="M32.8042 15.1224L33.0302 15.5304C34.5427 14.6926 35.6475 13.7276 36.3243 12.6563L36.1532 12.016C35.5578 13.175 34.4337 14.2204 32.8042 15.1224Z" fill="white"/>
<path d="M193.047 55.8344L193.122 55.3741C191.984 55.1896 190.969 55.1797 190.079 55.3225L189.822 55.8384C190.734 55.6381 191.816 55.6341 193.047 55.8344Z" fill="white"/>
<path d="M194.531 58.2901L194.673 57.8455C192.549 57.168 190.655 56.9432 189.154 57.18L188.895 57.701C190.372 57.3806 192.314 57.581 194.531 58.2901Z" fill="white"/>
<path d="M195.929 54.5614L196.071 54.1168C194.138 53.4999 192.456 53.2758 191.032 53.4085L190.79 53.8944C192.19 53.71 193.956 53.9316 195.929 54.5614Z" fill="white"/>
<path d="M34.8647 15.8148L35.1328 16.1955C35.8254 15.7055 36.3981 15.1767 36.848 14.6187L36.6937 14.0413C36.2471 14.6697 35.6387 15.2664 34.8647 15.8148Z" fill="white"/>
<path d="M84.3094 70.8512C84.9288 70.6871 85.42 70.5975 85.8091 70.5783L85.6896 70.1179C85.2854 70.1474 84.7995 70.2399 84.1909 70.4003L84.3094 70.8512Z" fill="white"/>
<path d="M84.978 73.2404L85.0965 73.6913C85.6986 73.5324 86.1663 73.4457 86.5466 73.4213L86.4281 72.9648C86.0335 72.9977 85.5634 73.0857 84.978 73.2404Z" fill="white"/>
<path d="M31.4077 11.8595L31.6337 12.2675C33.4417 11.2669 34.6749 10.0553 35.2753 8.72719L35.0674 7.94934C34.6487 9.41074 33.3963 10.7593 31.4077 11.8595Z" fill="white"/>
<path d="M33.4697 12.5521L33.7393 12.9328C34.6525 12.2858 35.3498 11.5762 35.8352 10.8199L35.6636 10.1777C35.2193 11.0289 34.4916 11.8286 33.4697 12.5521Z" fill="white"/>
<path d="M2.06742 20.4502C2.04015 20.6979 2.01911 20.9386 2.00586 21.1714L2.47028 21.1987C2.48352 20.9737 2.50301 20.7416 2.53028 20.5029C2.90197 17.2476 6.37654 15.9842 9.22538 15.4974L9.14746 15.038C4.83601 15.7744 2.38846 17.6458 2.06742 20.4502Z" fill="white"/>
<path d="M159.199 45.6784C159.371 45.7572 159.533 45.8313 159.655 45.8984L159.88 45.4912C159.749 45.4186 159.577 45.3391 159.393 45.2548C159.177 45.1559 158.918 45.0341 158.715 44.9131C158.688 45.0942 158.663 45.2587 158.64 45.4065C158.817 45.5004 159.008 45.5905 159.199 45.6784Z" fill="white"/>
<path d="M83.6031 72.5915C84.533 72.3026 85.4723 72.0546 86.1805 72.0131L86.0599 71.5485C85.3062 71.6037 84.3802 71.8616 83.4644 72.1468L83.6031 72.5915Z" fill="white"/>
<path d="M193.135 62.4853L193.276 62.0407C191.476 61.4662 188.989 60.96 186.974 61.561L186.686 62.1408C188.237 61.5154 190.463 61.6316 193.135 62.4853Z" fill="white"/>
<path d="M193.874 52.0259L193.927 51.5625C193.217 51.4811 192.568 51.4884 191.958 51.5442L191.717 52.0294C192.366 51.9436 193.085 51.9346 193.874 52.0259Z" fill="white"/>
<path d="M220.017 72.2255L219.682 71.9026C217.971 73.6773 215.382 73.9956 211.988 72.8418L211.838 73.2833C213.197 73.7452 214.453 73.9745 215.586 73.9745C217.397 73.9745 218.897 73.3887 220.017 72.2255Z" fill="white"/>
<path d="M58.6336 69.4774C58.639 69.5055 59.2055 72.299 60.1897 75.8609L59.7408 75.9857C58.752 72.4066 58.1824 69.5975 58.1769 69.5694L58.6336 69.4774ZM56.7619 71.6632C56.9621 72.5494 57.2917 73.9504 57.725 75.5886L58.1754 75.4685C57.7437 73.8381 57.4149 72.4433 57.2154 71.5602L56.7619 71.6632ZM18.0616 1.97974C15.7878 2.67051 13.4806 2.58041 13.4587 2.57963L13.4385 3.04534C13.4595 3.04612 13.5834 3.05119 13.7891 3.05119C14.5348 3.05119 16.352 2.98605 18.1972 2.42595L18.0616 1.97974ZM13.9239 4.44404L13.9037 4.90975C13.9333 4.91092 14.0634 4.91599 14.2722 4.91599C15.4489 4.91599 19.1299 4.75686 21.4957 2.87723L21.2058 2.51215C18.558 4.61566 13.9676 4.44638 13.9239 4.44404ZM175.653 70.2785L176.105 70.3924C176.11 70.3706 176.653 68.2191 177.421 65.8172L176.978 65.6752C176.205 68.0919 175.658 70.2567 175.653 70.2785ZM198.834 79.1521C200.418 79.9587 201.861 80.99 201.875 81.0001L202.147 80.621C202.132 80.6108 200.661 79.5601 199.045 78.7371L198.834 79.1521ZM177.493 70.8269L177.938 70.9642C177.938 70.9635 178.238 69.986 178.725 68.4445L178.281 68.3041C177.794 69.8479 177.493 70.8269 177.493 70.8269ZM202.147 78.7566C202.006 78.6559 198.667 76.2751 196.443 75.9085L196.367 76.3687C198.485 76.7174 201.842 79.1115 201.875 79.1357L202.147 78.7566Z" fill="#19105F"/>
<path d="M80.4762 45.6566C79.7297 46.7318 79.3202 48.0744 79.3547 49.3846C79.403 51.2607 80.3295 52.5034 81.316 53.4614C80.6599 53.9496 80.0905 54.5367 79.6018 55.1786C78.6349 54.229 77.8228 53.0794 77.7783 51.3744C77.7459 50.1141 78.1523 48.8277 78.8793 47.8034L78.8822 47.7988C78.9143 47.7538 78.9372 47.702 78.9706 47.658C79.0091 47.6061 79.0574 47.5587 79.0986 47.5079L80.4762 45.6566ZM84.0051 65.8172C82.7225 65.8172 81.6339 65.5707 80.7706 65.0847C78.8428 64.0082 78.0152 62.1313 77.8835 60.7342C77.748 59.2869 78.0975 57.7893 78.8011 56.4412C77.0951 58.1061 76.0989 60.4873 76.3068 62.7005C76.4299 64.0118 77.2076 65.7733 79.0208 66.7858C79.9871 67.3296 81.138 67.4747 82.0882 67.4747C82.562 67.4747 82.9859 67.4388 83.3124 67.3982C86.2048 67.0403 87.8922 65.4987 88.8183 64.5213C87.8786 65.088 86.721 65.5591 85.2714 65.7384C84.849 65.7907 84.4228 65.8172 84.0051 65.8172ZM93.0247 63.8483C92.3499 63.9044 91.8473 63.9458 91.5738 63.9785L91.2496 64.0199L91.0525 63.757C90.8327 63.4676 90.7439 63.232 90.7018 63.0463C90.2396 63.5038 89.6662 63.9894 88.9721 64.4272C89.049 64.5593 89.0707 64.6619 89.0857 64.7756C89.1102 64.9636 89.1406 65.1976 89.4075 65.5502L89.4862 65.6547L89.616 65.6383C89.898 65.604 90.4209 65.5611 91.0638 65.5081C92.6943 65.3739 95.1586 65.1718 96.3656 64.877L96.5117 64.8411L98.6992 63.1277L98.3631 63.2102C97.1335 63.5105 94.661 63.7141 93.0247 63.8483ZM118.891 23.7333C118.78 24.1505 118.72 24.4361 118.686 24.6434L122.498 24.7392L122.918 25.8235C122.961 26.0227 122.997 26.2059 123.029 26.3787C123.61 26.2792 124.323 26.1387 124.473 26.01C124.635 25.8599 124.714 25.6871 124.72 25.469C124.727 25.1223 124.654 24.5934 124.501 23.8983L124.18 23.0761L119.312 22.9536L118.891 23.7333ZM123.354 18.6912L122.276 12.3292L121.11 16.7197L121.436 18.643L123.354 18.6912ZM134.793 31.0837L135.457 27.5863L135.462 27.5066L134.987 28.1634L134.491 30.9769L121.782 30.6738L121.883 26.6257L120.814 28.0449L120.75 30.6164L110.051 30.8458L110.152 27.2105L108.569 29.4616L108.485 32.4959L118.501 32.2806L120.249 30.9708L120.214 32.3394L132.29 32.6273L133.481 31.724L133.276 32.8018L152.73 35.9734L154.917 34.3742L154.902 34.3622L134.793 31.0837ZM83.935 58.046C84.0386 59.1482 84.334 59.8113 84.9223 60.2638C85.4031 60.6335 86.0475 60.7388 86.2703 60.7069C87.0706 60.6078 87.521 60.4479 87.9792 60.068C86.8018 58.8651 85.3906 57.432 84.1275 56.4226C83.9607 56.9141 83.8758 57.4125 83.935 58.046ZM98.7316 63.1023L98.7355 63.0992L98.7324 63.0971L98.7316 63.1023ZM113.412 24.2205L119.934 3.54363L118.273 5.86693L111.82 26.3251C111.789 26.4215 111.758 26.4989 111.727 26.5889C112.107 26.3955 112.436 26.2008 112.543 26.0904C112.722 25.9047 113.018 25.4296 113.412 24.2205ZM85.9353 46.425L85.848 46.4281C85.5877 46.4421 85.3485 46.5662 85.1896 46.769C84.9823 47.0787 84.8911 47.5592 84.8989 47.8884C84.9223 48.7746 85.3828 49.6148 86.2688 50.3894C86.7511 49.7302 86.942 49.0492 86.9179 48.1162C86.8992 47.4102 86.688 46.9921 86.515 46.7651C86.275 46.4515 86.0974 46.425 85.9353 46.425ZM188.906 38.1304C188.958 38.0852 189.01 38.0539 189.063 38.0035C190.283 36.8342 191.501 34.3601 192.683 30.6496C193.884 26.8802 194.309 24.2291 193.947 22.7707C193.743 21.9325 193.254 21.4313 192.451 21.237C192.311 21.2035 192.173 21.1867 192.035 21.1867C191.502 21.1867 190.977 21.4391 190.441 21.9504C190.175 22.2064 189.909 22.5371 189.643 22.9203C189.965 22.8435 190.288 22.8251 190.615 22.9041C191.545 23.129 192.127 23.7236 192.362 24.6871C192.741 26.216 192.317 28.9042 191.091 32.752C190.374 35.0032 189.645 36.7887 188.906 38.1304ZM57.5602 19.0494C58.8806 18.5392 59.9239 18.4733 60.5754 18.8571C61.1949 19.2226 61.293 19.8865 61.3098 19.9785L65.0894 33.4721C65.0928 33.4837 65.3386 34.324 65.3109 35.2411C65.3471 35.23 65.3811 35.2276 65.4175 35.2159C65.9255 35.0727 66.5653 34.6183 66.7305 34.1639C67.1193 33.0909 66.6837 31.5853 66.6798 31.5705L62.8983 18.0718C62.8499 17.8039 62.7245 17.3916 62.3193 17.1525C61.7684 16.828 60.8014 16.9048 59.599 17.369L58.7878 17.683L57.6406 13.5848L56.1424 15.8152L57.0981 19.2281L57.5602 19.0494ZM136.746 27.4105C137.171 27.3341 137.509 27.2141 137.731 27.039C137.902 26.911 138.128 26.5818 138.272 25.7089L140.698 9.80716C140.765 9.40464 140.708 9.09299 140.524 8.84999C140.469 8.77705 140.221 8.7205 139.957 8.66004C139.64 8.58749 139.205 8.48803 138.686 8.27858L138.432 8.176L139.093 4.1873L139.092 4.18564L137.461 6.55507L137.454 6.56599L137.458 6.57091L136.896 9.9603C137.974 10.3952 138.638 10.325 138.879 10.6428C139.12 10.9608 139.2 11.3653 139.119 11.8573L136.746 27.4105ZM90.6289 51.0493L89.0062 53.1918C90.0146 54.0671 90.8776 54.8507 91.6712 55.6542C91.8995 55.0528 92.0265 54.4552 92.0405 53.9131L90.6309 53.9778L90.5802 53.438C90.507 52.654 90.5062 52.0034 90.5771 51.4472L90.6289 51.0493ZM120.883 61.6834L121.002 61.5874L120.992 61.5851C120.955 61.6168 120.921 61.6525 120.883 61.6834ZM77.5323 37.3185L77.561 37.3336C77.561 37.3336 79.8664 35.5984 79.8862 35.4461C79.5593 35.6916 79.1832 35.8704 78.7539 35.9718C78.5061 36.0299 78.2615 36.0591 78.0222 36.0591C77.4737 36.0591 76.95 35.9062 76.4583 35.6016C75.7516 35.164 75.2957 34.5274 75.1033 33.7099C74.9371 33.0015 75.0227 32.3288 75.3294 31.7008L74.5902 32.7886C74.4143 33.8114 74.058 34.7523 73.5148 35.6037C73.5169 35.6127 73.5164 35.6213 73.5186 35.6303C73.6901 36.3598 74.0907 36.9198 74.7208 37.3101C75.351 37.7003 76.0302 37.8097 76.7593 37.6381C77.0456 37.5706 77.2981 37.457 77.5323 37.3185ZM137.214 62.2082C136.96 62.423 136.704 62.6351 136.426 62.8193C135.086 63.7071 133.551 64.1564 131.861 64.1564C131.761 64.1564 131.66 64.1549 131.558 64.1517C129.744 64.0948 128.172 63.5425 126.884 62.5128C125.6 61.4846 124.683 60.0758 124.159 58.3237C123.643 56.5997 123.451 54.7189 123.59 52.7328C123.727 50.749 124.179 48.8893 124.932 47.2066C125.246 46.5042 125.633 45.8806 126.061 45.3056L126.047 45.2627L124.569 47.2731L124.586 47.2672C124.098 47.8788 123.674 48.5666 123.326 49.3449C122.884 50.3323 122.563 51.3801 122.337 52.4751C122.898 53.4474 123.238 54.6541 123.263 56.1816C123.284 57.5559 123.011 58.7595 122.46 59.7868C122.498 59.9318 122.525 60.0813 122.568 60.2243C123.075 61.9164 123.945 63.2564 125.18 64.2443C126.415 65.2322 127.906 65.754 129.652 65.8091C131.399 65.8644 132.955 65.439 134.322 64.5334C134.437 64.4573 134.536 64.363 134.647 64.2816L134.626 64.3055L134.904 64.0824C135.047 63.9679 135.197 63.8618 135.333 63.7379L137.229 62.2146L137.214 62.2082ZM105.672 31.5178L105.676 31.5596L107.909 29.7422L107.902 29.739C107.754 29.8487 107.603 29.9554 107.446 30.0536C106.896 30.3988 106.093 30.7362 105.058 31.0568C104.072 31.3626 102.15 31.6446 99.5686 31.9738L88.1015 32.8311L87.5989 28.7536L87.6093 28.7488L87.6021 28.745L86.0507 30.9577L86.4836 34.4649L97.609 33.6337C99.9187 33.3395 102.03 33.0428 103.041 32.7294C104.052 32.4161 104.821 32.0939 105.349 31.7627C105.464 31.6903 105.562 31.5964 105.672 31.5178ZM29.3784 29.091C29.8577 29.1101 30.3114 29.3037 30.7401 29.672C31.1689 30.0405 31.5242 30.5943 31.806 31.3336C32.0905 32.0811 32.2194 32.71 32.2268 33.2462C33.0036 32.8818 33.5052 32.4722 33.6937 32.0194C33.9313 31.4488 33.8339 30.5864 33.4038 29.4568C33.1435 28.7747 32.8178 28.2617 32.4344 27.9322C32.0627 27.6127 31.6856 27.4493 31.282 27.4333C30.8432 27.4169 30.2355 27.5546 29.4539 27.844L28.5531 28.1783L28.9118 29.1198C29.0805 29.0979 29.239 29.0855 29.3784 29.091ZM107.518 61.3965L107.302 61.2334L106.731 55.0614L105.184 57.3569L105.711 63.05L105.806 63.1218C107.467 64.3715 110.191 65.1484 112.917 65.1484H112.921C115.489 65.1477 117.572 64.4708 118.992 63.201L120.815 61.7379C119.347 62.8862 117.302 63.4903 114.838 63.491C112.039 63.491 109.236 62.6883 107.518 61.3965ZM86.5046 12.6943C86.8143 13.0046 87.0121 13.504 87.097 14.1922L88.8444 28.355C89.0407 28.3186 89.2365 28.2867 89.4231 28.2586C89.7558 28.2083 90.2109 28.1401 90.3067 28.0589C90.4805 27.7871 90.5467 27.4005 90.4883 26.9262L88.675 12.2352C88.6002 11.6275 88.4335 11.1907 88.1802 10.9371C88.0431 10.8576 87.2841 10.8303 86.7815 10.8119C86.1488 10.7893 85.4942 10.7655 85.0158 10.6567L84.782 10.6036L84.2806 6.53542L82.7426 8.81572L83.175 12.3227C84.179 12.5512 86.1945 12.3844 86.5046 12.6943ZM118.602 48.8331L118.459 48.4228C117.661 46.1246 116.815 44.2228 114.53 44.2228C113.787 44.2228 113.197 44.424 112.825 44.8032C112.549 45.0832 112.402 45.462 112.383 45.8971C112.461 45.8928 112.532 45.8802 112.613 45.8802C114.499 45.8802 115.495 47.0675 116.219 48.6501C117.637 49.0314 119.004 49.5148 120.153 50.2501C120.764 49.7907 122.111 48.8332 122.111 48.8332L122.108 48.8315L118.602 48.8331ZM132.125 60.1331C132.495 60.0331 132.821 59.7691 133.113 59.3269C133.848 58.2191 134.358 56.102 134.628 53.0347C134.903 49.9198 134.774 47.8057 134.246 46.7503C133.951 46.1543 133.518 45.8727 132.883 45.8617H132.859C132.342 45.8617 131.9 46.1473 131.51 46.7331C131.363 46.9557 131.228 47.2312 131.099 47.5372C131.79 47.5877 132.306 47.933 132.635 48.5962C133.194 49.7143 133.333 51.8699 133.051 55.0633C132.861 57.2269 132.55 58.9091 132.125 60.1331ZM106.486 46.3494C105.741 47.4686 105.36 48.8419 105.385 50.3891C105.416 52.3712 105.967 53.8572 107.181 55.0175L110.758 55.0161L110.874 55.4756C111.048 56.1527 111.249 56.7338 111.469 57.2598C111.71 57.3343 111.955 57.4079 112.213 57.4786C115.39 58.3452 116.011 59.018 116.063 60.153C116.531 60.0572 116.916 59.8812 117.18 59.6132C117.496 59.291 117.653 58.837 117.644 58.2644C117.63 57.3712 117.371 56.7183 114.04 55.8094C109.009 54.4295 107.023 52.3513 106.961 48.3963C106.934 46.7004 107.376 45.203 108.234 43.9979C108.234 43.9973 108.23 43.9921 108.23 43.9921L106.463 46.3564C106.463 46.3564 106.48 46.3512 106.486 46.3494ZM149.471 11.5679L149.475 11.5647C149.477 11.5648 149.479 11.5648 149.481 11.5649L149.482 11.5596L151.673 9.92247L151.379 9.90701C150.186 9.84188 149.193 9.9819 148.922 10.1527C148.823 10.2144 148.641 10.4207 148.525 11.1123L148.456 11.5597C148.788 11.5464 149.134 11.5469 149.47 11.5645L149.471 11.5679ZM153.675 50.4697C153.51 50.4073 153.261 50.3129 152.929 50.0524L152.751 49.9128L153.611 46.7716L151.943 49.1531L151.935 49.1821L152.755 55.7533L153.76 51.7202C153.92 51.1336 153.925 50.9198 153.92 50.8551C153.909 50.7373 153.862 50.6211 153.774 50.5009C153.774 50.5072 153.72 50.4869 153.675 50.4697ZM151.686 9.90916L151.685 9.91355L151.688 9.91131L151.686 9.90916ZM97.1775 11.5928C97.7021 11.9946 98.0387 12.7928 98.1862 13.9877C98.2414 14.4357 98.2512 14.8334 98.2205 15.1862C98.4545 15.118 98.6834 15.0259 98.8977 14.8824C99.2032 14.6777 99.451 14.3496 99.6333 13.9069C99.818 13.4568 99.8624 12.8253 99.7642 12.0308C99.6294 10.9363 99.3341 10.2077 98.8868 9.86528C98.4317 9.51697 97.9081 9.38396 97.2917 9.46509L96.4977 9.56612L96.7139 11.3184C96.8748 11.3923 97.0306 11.4806 97.1775 11.5928ZM150.137 28.4098C150.473 28.1979 150.778 27.9148 151.043 27.5491C151.464 26.9676 152.068 25.6535 152.838 23.6428L152.929 23.4034L152.925 23.3893L151.239 25.7634C150.823 26.8504 150.457 27.7284 150.137 28.4098ZM84.2926 6.51772L84.288 6.5245L84.2952 6.52347L84.2926 6.51772ZM119.958 3.51013L119.95 3.52105L119.961 3.5213L119.958 3.51013ZM160.47 52.2546L160.209 52.253C159.868 52.2515 159.495 52.1906 159.166 52.1376C158.933 52.1001 158.614 52.0494 158.524 52.065C158.334 52.1259 158.194 52.2086 158.116 52.3084C158.064 52.3747 157.953 52.5705 157.798 53.1369L157.604 53.8456C157.836 53.8802 158.076 53.9094 158.294 53.9104L158.311 53.8474L158.323 53.8995L160.476 52.259L160.47 52.2546ZM139.636 61.4097C139.794 61.4582 139.931 61.5119 140.033 61.554C140.095 61.5798 140.144 61.6024 140.182 61.611C140.307 61.5852 140.444 61.5337 140.529 61.455C140.607 61.3801 140.726 61.2061 140.833 60.8129L143.896 49.1046C144.013 48.6755 144.019 48.5234 144.016 48.4782C144.005 48.3557 143.918 48.188 143.766 48.0023C143.696 47.9165 143.382 47.7745 143.153 47.6708C142.936 47.5717 142.709 47.4679 142.517 47.3548L142.293 47.2222L143.165 44.036L143.157 44.0082L141.486 46.4368C141.486 46.4368 141.49 46.4402 141.491 46.4407L140.796 48.9785C140.802 49.0128 140.809 49.0471 140.816 49.0815C141.279 49.3445 141.921 49.5489 142.113 49.7852C142.312 50.0282 142.421 50.2519 142.44 50.4558C142.448 50.5944 142.404 50.839 142.309 51.1895L139.636 61.4097ZM137.765 64.5004L138.645 61.2889L138.643 61.2818L136.988 63.6307L136.268 66.2605L143.347 68.2034L145.486 66.6215L145.485 66.62L137.765 64.5004ZM98.4769 19.8227L97.7748 19.9121L97.9841 21.6094C98.3196 21.7224 98.6273 21.8879 98.8942 22.1301C99.5063 22.6855 99.8931 23.6193 100.055 24.9312C100.156 25.7498 100.145 26.4731 100.036 27.1125C100.324 27.0163 100.577 26.8917 100.787 26.7332C101.15 26.4582 101.41 25.9983 101.561 25.3668C101.722 24.6952 101.747 23.8905 101.634 22.9743C101.482 21.7519 101.129 20.8805 100.582 20.3844C100.043 19.8949 99.3543 19.7092 98.4769 19.8227ZM148.012 67.3134L146.187 55.2431L145.186 61.0205L145.48 62.9621C145.664 63.0456 145.879 63.148 146.151 63.3116L146.373 63.445L145.844 65.3735L146.399 69.0411L151.347 70.3994L153.503 68.8249L153.466 68.8108L148.012 67.3134ZM57.6558 13.5623L57.6449 13.5785L57.6743 13.5702L57.6558 13.5623ZM54.0229 43.8249C53.6964 43.9318 53.373 43.9848 53.0535 43.9848C52.5938 43.9848 52.1434 43.8741 51.7062 43.6525C50.9652 43.2789 50.4571 42.6837 50.1953 41.8856C49.9343 41.0884 49.9919 40.3083 50.3667 39.5668C50.4916 39.3196 50.6496 39.1082 50.8223 38.9133C50.8102 38.9043 50.7958 38.8936 50.7958 38.8936L49.1257 41.1735C49.0332 41.2819 48.9584 41.4106 48.8799 41.5349L50.0371 44.5723L41.7781 47.6372L33.1443 38.0078L32.3705 38.1989L34.0743 42.6702L35.9443 44.7559C35.9581 44.756 35.9718 44.7563 35.9854 44.7564L37.9778 44.6113L39.4615 48.5062L26.4749 52.9738L25.0011 49.1039L23.5494 51.1756C23.5302 51.189 23.5111 51.2015 23.492 51.215L23.5025 51.2426L23.5003 51.2457L23.5046 51.2482L24.7597 54.5422L37.1005 50.2964L39.3584 48.5636L39.9604 49.235L47.6791 46.3701L49.4354 45.0111C49.5889 45.1369 49.755 45.2518 49.9432 45.347C50.6036 45.6815 51.2892 45.7323 51.9998 45.4989C52.3054 45.3984 52.5691 45.2503 52.805 45.0708L52.82 45.0858L54.8764 43.397C54.8764 43.397 54.8724 43.3834 54.8716 43.3809C54.6187 43.5643 54.3417 43.7199 54.0229 43.8249ZM162.704 25.4101L162.694 25.9379C162.684 26.5577 162.702 27.1304 162.743 27.6671C163.364 28.1222 164.05 28.5762 164.819 29.0338C168.19 31.033 168.849 32.0584 168.646 33.3424C168.808 33.2924 168.965 33.2342 169.104 33.1533C169.618 32.8557 169.973 32.3385 170.159 31.6165C170.45 30.4877 170.357 29.5793 166.562 27.3288C160.952 23.9931 159.247 20.8314 160.48 16.0518C160.861 14.5753 161.504 13.3058 162.365 12.2721L162.355 12.2434L160.395 14.8854C160.37 14.9193 160.344 14.952 160.32 14.9863L160.267 15.058C160.267 15.058 160.277 15.0514 160.279 15.0505C159.665 15.9347 159.195 16.9682 158.894 18.1359C158.246 20.6483 158.455 22.6985 159.658 24.5711L162.704 25.4101ZM194.093 45.8376L195.737 42.1493L195.741 42.1499L195.74 42.1425L194.024 44.5259L192.626 47.6635L201.072 51.4339L203.146 49.8947C203.146 49.8947 203.137 49.8852 203.122 49.8686L194.093 45.8376ZM204.667 26.4367C204.585 26.2975 204.225 26.0631 203.936 25.8747C203.687 25.7128 203.428 25.5431 203.213 25.3676L203.012 25.2026L204.643 21.5419L202.91 23.9641L201.513 27.1017C202.039 27.5321 202.843 27.9206 203.043 28.2612C203.245 28.6018 203.338 28.9012 203.322 29.1587C203.306 29.3329 203.205 29.6291 203.019 30.0474L197.502 42.8271C197.502 42.8272 197.503 42.8278 197.503 42.828C197.712 42.8264 197.91 42.7827 198.046 42.6891C198.169 42.6049 198.361 42.4005 198.579 41.9106L204.622 27.9134C204.847 27.4083 204.893 27.2055 204.899 27.1294C204.91 26.952 204.832 26.7156 204.667 26.4367ZM193.009 43.011L194.728 41.6118L194.704 41.6073C193.892 42.2176 193.017 42.7078 192.08 43.0651C190.941 43.4996 189.759 43.7165 188.544 43.7165C187.639 43.7165 186.717 43.5956 185.781 43.3545C183.588 42.7882 181.823 41.6859 180.535 40.0778C179.251 38.4747 178.519 36.5057 178.358 34.2255C178.199 31.975 178.482 29.6203 179.197 27.2266C179.89 24.9039 180.919 22.8121 182.246 20.9957C182.245 20.9875 182.245 20.9767 182.245 20.9767L180.718 23.0193L180.73 23.0134C180.724 23.021 180.718 23.0279 180.712 23.0355C179.503 24.655 178.567 26.4977 177.876 28.539C177.842 29.2815 177.73 30.0695 177.51 30.9238C177.346 31.5571 177.139 32.146 176.891 32.6922C176.741 33.8806 176.701 35.0504 176.782 36.1998C176.938 38.4198 177.639 40.3076 178.884 41.8631C180.13 43.4187 181.818 44.4721 183.95 45.0224C186.082 45.5729 188.112 45.48 190.042 44.7444C191.133 44.3283 192.131 43.7322 193.041 42.9687L193.009 43.011ZM206.289 51.2826L206.316 35.4136L204.736 40.1326L204.725 46.1837L204.787 46.2346L204.725 46.3729L204.714 53.0596L210.618 55.6955L210.625 55.6782L212.705 54.1568L212.699 54.1442L206.289 51.2826ZM173.665 36.3337C172.328 37.1084 170.744 37.5011 168.956 37.5011C167.699 37.5011 166.348 37.3046 164.943 36.9168C161.562 35.9854 158.441 34.0832 156.799 31.9524L156.616 31.7129L157.966 24.116L156.895 25.0096L155.067 33.6321L155.152 33.7424C156.752 35.8175 159.803 37.6737 163.117 38.5868C164.502 38.9686 165.817 39.1586 167.039 39.1586C168.756 39.1586 170.29 38.7834 171.578 38.0372C171.868 37.8694 172.137 37.6781 172.397 37.4758L172.396 37.4783L174.774 35.5644L174.763 35.5496C174.421 35.8387 174.06 36.1052 173.665 36.3337ZM66.3744 40.1698C64.6835 40.6441 63.0783 40.8848 61.604 40.8848C59.4626 40.8848 57.7226 40.3703 56.5717 39.3967C55.7894 38.7352 54.5099 34.5231 53.8172 32.0709L53.5916 31.2705L52.0982 33.5158L52.2283 33.9768C52.4446 34.7423 52.9234 36.3947 53.4421 37.9267C53.7844 37.9693 54.1222 38.0646 54.4514 38.2332C55.194 38.6132 55.7013 39.2052 55.9592 39.9927C56.1639 40.6175 56.1657 41.2317 55.9793 41.8254C56.9868 42.298 58.2472 42.5422 59.6875 42.5422C61.1049 42.5422 62.6914 42.3098 64.3655 41.8401C66.4388 41.2581 68.1221 40.4631 69.408 39.4701L69.4158 39.4727L71.6489 37.6713L71.6327 37.6589C70.2984 38.7171 68.5451 39.5606 66.3744 40.1698ZM75.9063 30.8519L75.8785 30.8928C75.8896 30.8811 75.903 30.8725 75.9143 30.8611C75.913 30.8596 75.9063 30.8519 75.9063 30.8519ZM217.139 26.8954C217.139 26.8954 215.452 29.324 215.405 29.3498L214.392 31.6246L214.359 32.8098C214.716 33.0879 214.945 33.1198 215.041 33.3018C215.164 33.5382 215.219 33.7713 215.203 34.0011C215.187 34.231 215.056 34.6248 214.807 35.1827L214.258 36.497L214.208 38.3218L216.409 33.0523C216.715 32.3666 216.773 32.0854 216.781 31.9781C216.791 31.8119 216.75 31.6423 216.656 31.4621C216.641 31.4445 216.562 31.3993 216.503 31.3665C216.315 31.2604 216.029 31.0997 215.676 30.7225L215.521 30.5572L217.143 26.9146L217.139 26.8954ZM178.608 21.5127L178.605 21.5272L174.473 20.3887L174.441 19.9058C174.238 16.8135 173.838 14.1905 171.006 13.4092C170.082 13.1557 169.274 13.2052 168.673 13.552C168.185 13.8355 167.841 14.3117 167.68 14.9285C168.138 14.8857 168.641 14.931 169.18 15.0792C171.685 15.7698 172.423 17.8278 172.72 20.2655C173.999 21.1016 175.091 21.9827 175.939 22.9654L176.439 23.1032L178.614 21.5236L178.608 21.5127ZM25.485 48.7569C25.6969 48.6142 25.912 48.469 26.1095 48.3424C26.5014 48.0912 27.0375 47.7472 27.1069 47.6068C27.1715 47.4305 27.1902 47.0615 26.9082 46.3197L21.5354 32.216C21.3398 31.7031 21.1801 31.4687 21.0803 31.3626C20.9525 31.2269 20.7421 31.1258 20.4554 31.0634C20.1975 31.0108 19.4385 31.1695 18.8845 31.2858C18.5136 31.3634 18.1684 31.4348 17.9323 31.4605L17.6712 31.489L16.1959 27.6173C16.1834 27.5997 16.1744 27.587 16.1744 27.587L14.7114 29.7923L15.9787 33.1196C16.6207 33.0499 18.0993 32.6231 18.6111 32.7284C18.9686 32.8067 19.2355 32.9398 19.4123 33.1275C19.5886 33.3152 19.7636 33.6372 19.9373 34.093L25.3102 48.1967C25.3876 48.4003 25.4421 48.5836 25.485 48.7569ZM224.506 34.8617L224.272 34.8246C223.855 34.7587 223.405 34.6132 223.008 34.4845C222.71 34.3882 222.303 34.2513 222.189 34.2688C221.915 34.3117 221.709 34.3952 221.581 34.5169C221.498 34.5945 221.313 34.8278 221.005 35.5162L220.778 36.0278C221.242 36.1645 221.866 36.4007 222.408 36.4862L224.513 34.8728C224.513 34.8728 224.508 34.8646 224.506 34.8617Z" fill="#B0E2F9"/>
<path d="M73.5739 28.1012C74.3937 31.0281 74.1459 33.4878 72.8375 35.4115C72.5253 35.8707 72.1508 36.3013 71.7155 36.703C70.4123 37.9053 68.5621 38.8475 66.1907 39.5132C62.2759 40.6104 58.7725 40.3635 57.0115 38.8758C56.5792 38.5095 55.5935 35.8103 54.5433 32.1291C54.52 32.0475 54.4969 31.968 54.4735 31.8855L54.4416 31.7735L58.192 30.954L58.2193 31.0476C58.2286 31.08 59.18 34.3299 61.6424 35.6365C62.7129 36.2042 63.9163 36.3164 65.213 35.9817C65.3463 35.9473 65.4796 35.913 65.6149 35.869C66.2749 35.6833 67.1149 35.1045 67.3713 34.397C67.8279 33.1371 67.3853 31.5539 67.3346 31.3815L63.5609 17.9125C63.5024 17.5716 63.3076 16.9432 62.6655 16.5645C61.9182 16.1245 60.7743 16.1834 59.3538 16.7326L59.2416 16.7759L58.4795 14.053L58.6729 13.9987L71.6165 10.3659L72.3747 13.0732L72.2749 13.106C71.4369 13.3823 70.8603 13.6245 70.4864 13.9092C69.9572 14.3119 69.8374 14.8006 69.9838 15.5951C70.0204 15.7943 70.0731 16.0121 70.1406 16.2532L73.5739 28.1012ZM154.381 33.5857L156.042 25.7484L156.049 25.7158L156.281 24.6201L153.374 24.1466C153.335 24.2479 153.298 24.3395 153.26 24.437C152.562 26.2129 152.015 27.3702 151.595 27.9499C151.116 28.611 150.528 29.0709 149.845 29.3174C149.783 29.34 149.709 29.3515 149.642 29.3704C148.997 29.5546 148.182 29.5756 147.201 29.4157L145.059 29.1493L147.759 11.6153L147.853 11.0044C147.977 10.261 148.207 9.79488 148.56 9.5745C149.039 9.27353 150.134 9.20201 150.948 9.21215C151.003 9.21283 151.059 9.21273 151.111 9.2141L151.568 6.45492L139.661 4.93648L139.589 5.37138L139.195 7.74168C139.553 7.86727 139.856 7.93709 140.11 7.99521C140.53 8.09116 140.862 8.16722 141.067 8.43752C141.367 8.83342 141.469 9.32994 141.372 9.91501L138.945 25.8164C138.797 26.7135 138.536 27.2896 138.146 27.5809C137.791 27.8606 137.282 28.0388 136.615 28.1251C136.433 28.1487 136.245 28.1687 136.038 28.1781L135.799 29.442L135.594 30.523L153.781 33.4879L154.381 33.5857ZM107.876 28.8747C107.626 29.092 107.366 29.2987 107.085 29.4754C106.584 29.7894 105.835 30.1018 104.857 30.4048C103.862 30.7138 101.686 31.016 99.5003 31.2953L88.6987 32.1019L88.3387 29.1797C88.358 29.1732 88.3812 29.1702 88.401 29.164C88.563 29.113 88.7346 29.0695 88.9124 29.0351C89.1178 28.9954 89.3266 28.9635 89.5247 28.9336C90.1847 28.8341 90.6608 28.7628 90.8649 28.4484C91.1423 28.0213 91.2436 27.4815 91.1649 26.843L89.3517 12.1519C89.2566 11.3788 89.0306 10.8234 88.6621 10.4544C88.4072 10.1994 87.8501 10.1678 86.8059 10.1303C86.3088 10.1124 85.7968 10.0937 85.3994 10.0344L85.2064 8.46907L85.0387 7.10864L99.4785 5.07572C101.073 4.87212 102.407 4.93531 103.442 5.26138C104.457 5.58278 105.304 6.15966 105.959 6.97563C106.616 7.79629 107.022 8.80221 107.166 9.96572C107.279 10.8897 107.219 11.7677 106.987 12.5747C106.756 13.377 106.391 14.0612 105.902 14.6076C105.71 14.8221 105.467 15.0367 105.198 15.251C104.77 15.593 104.256 15.9341 103.64 16.27L102.639 16.8153L103.775 16.9097C103.894 16.9196 103.996 16.9463 104.112 16.9597C105.797 17.1543 107.126 17.7038 108.037 18.6243C109.015 19.6135 109.629 21.0793 109.864 22.9811C110.007 24.1396 109.98 25.1123 109.782 25.8721C109.585 26.6296 109.247 27.3235 108.777 27.9343C108.509 28.2828 108.203 28.591 107.876 28.8747ZM98.066 15.9241C98.4922 15.854 98.9003 15.7015 99.2767 15.4497C99.6967 15.1685 100.029 14.7371 100.264 14.1673C100.494 13.6068 100.554 12.8598 100.441 11.9475C100.28 10.6463 99.9078 9.78786 99.3008 9.32331C98.7055 8.86774 98.0019 8.68793 97.2063 8.78817L95.7374 8.975L96.0034 11.1278L96.6203 16.1214L97.9621 15.9502C97.9977 15.9456 98.0307 15.9299 98.066 15.9241ZM102.31 22.891C102.139 21.5009 101.711 20.4876 101.04 19.8791C100.354 19.2566 99.4645 19.0105 98.3915 19.1458L97.0146 19.3209L97.2791 21.4642L98.1008 28.1235L99.3523 27.9639C99.5238 27.9421 99.6868 27.9111 99.8447 27.8752C100.377 27.754 100.832 27.5551 101.198 27.2775C101.691 26.9046 102.035 26.3152 102.224 25.5258C102.404 24.7749 102.433 23.8884 102.31 22.891ZM119.189 50.4894C118.382 50.0547 117.486 49.7238 116.553 49.4514C116.314 49.3815 116.073 49.3142 115.83 49.2506C112.937 48.5088 111.723 47.8972 111.694 46.0304C111.693 46.0211 111.696 46.0127 111.696 46.0035C111.691 45.3395 111.912 44.7583 112.339 44.3244C112.843 43.8119 113.6 43.5412 114.53 43.5412C117.239 43.5412 118.271 45.8105 119.087 48.1499H121.42L121.262 43.414C119.72 42.2969 117.454 41.6814 114.874 41.6814C112.597 41.6814 110.64 42.3991 109.36 43.7019C109.183 43.8813 109.024 44.0746 108.874 44.2743C108.043 45.3797 107.617 46.7833 107.642 48.3855C107.701 52.0184 109.483 53.8524 114.221 55.1512C117.341 56.0031 118.301 56.7278 118.326 58.2537C118.337 59.0166 118.115 59.6352 117.666 60.0923C117.267 60.4973 116.701 60.7593 116.006 60.8656C115.773 60.9015 115.524 60.92 115.262 60.92C113.042 60.92 111.576 59.691 110.615 56.9761C110.476 56.582 110.347 56.1572 110.228 55.6996H107.475L107.628 57.3566L107.954 60.8701C109.561 62.0667 112.193 62.8094 114.834 62.8094C117.184 62.8087 119.109 62.2352 120.459 61.148C120.633 61.0077 120.8 60.8613 120.955 60.7039C121.521 60.1271 121.939 59.4476 122.211 58.6734C122.47 57.9324 122.596 57.1048 122.582 56.1927C122.566 55.2231 122.402 54.4003 122.131 53.6858C121.564 52.1895 120.501 51.1963 119.189 50.4894ZM119.626 29.958L110.752 30.1486L110.801 28.3815L110.819 27.7209C110.984 27.6667 111.172 27.5932 111.368 27.5103C112.028 27.2304 112.779 26.8279 113.032 26.5649C113.371 26.215 113.707 25.5176 114.062 24.4294L120.247 4.82054L120.437 4.21606L127.422 4.39119L131.872 24.9411C132.028 25.6596 132.163 26.1459 132.288 26.4365C132.465 26.8199 132.698 27.1351 132.98 27.3726C133.221 27.5762 133.719 27.71 134.35 27.8571L134.001 29.8338L133.923 30.2804L122.48 30.0078L122.521 28.399L122.552 27.148L122.581 27.1437C122.77 27.1138 122.949 27.0844 123.123 27.0549C123.998 26.9068 124.668 26.755 124.933 26.5134C125.233 26.2353 125.391 25.8897 125.401 25.4856C125.41 25.078 125.334 24.5109 125.152 23.7019L124.65 22.4054L118.912 22.2611L118.263 23.4796C118.128 23.9625 118.043 24.3379 118 24.6263C117.982 24.749 117.969 24.8606 117.966 24.9505C117.955 25.4212 118.118 25.8284 118.45 26.1573C118.861 26.5762 119.434 26.8816 120.157 27.0668L120.085 29.9481L119.626 29.958ZM124.165 19.3943L122.423 9.11776L120.836 15.0979L119.725 19.2831L121.553 19.3289L124.165 19.3943ZM217.491 27.8099L217.391 28.0351L216.331 30.413C216.537 30.6026 216.701 30.695 216.838 30.7719C216.996 30.8608 217.159 30.9529 217.259 31.1448C217.412 31.4357 217.48 31.7314 217.461 32.0243C217.441 32.3044 217.306 32.7166 217.035 33.3232L213.425 41.963L213.528 38.2446L213.856 26.3702L205 22.4163L204.899 22.6425L203.851 24.9957C203.998 25.1006 204.155 25.2032 204.308 25.3027C204.728 25.5769 205.091 25.8132 205.254 26.0898C205.492 26.4927 205.599 26.85 205.579 27.1807C205.559 27.407 205.454 27.7241 205.247 28.1878L199.205 42.1854C198.972 42.7057 198.721 43.0528 198.432 43.2518C198.175 43.4288 197.836 43.5162 197.44 43.5022C197.37 43.5062 197.303 43.4857 197.231 43.454C197.151 43.4183 197.065 43.3675 196.963 43.3056C196.755 43.1808 196.486 43.0177 196.139 42.9202L195.913 43.4281L194.994 45.493L202.272 48.7413L202.817 48.9846L203.952 46.4337C203.682 46.2239 203.457 46.0804 203.269 45.961C202.928 45.7434 202.681 45.5866 202.588 45.2691C202.463 44.8408 202.546 44.3103 202.841 43.6465L204.74 37.9771L207.005 31.2107L206.972 50.8397L212.201 53.1742L212.363 53.2463L220.055 35.9758L220.383 35.2383C220.663 34.6127 220.894 34.2253 221.113 34.0194C221.345 33.8021 221.672 33.659 222.085 33.5946C222.339 33.5545 222.662 33.6559 223.218 33.8353C223.453 33.9115 223.707 33.9899 223.955 34.055C224.011 34.0699 224.069 34.0881 224.124 34.1009L225.276 31.5157L217.491 27.8099ZM153.853 48.4705L153.532 49.6446C153.689 49.7452 153.812 49.792 153.916 49.831C154.053 49.8833 154.208 49.9418 154.323 50.0963C154.486 50.3178 154.578 50.5542 154.599 50.7991C154.618 51.0292 154.56 51.3764 154.419 51.8936L152.533 59.4714L151.941 54.7345L151.604 52.0274L151.464 50.9061L150.958 46.8573L143.649 44.8509L143.528 45.2925L143.175 46.5821L143.096 46.8697L143.091 46.8885C143.203 46.9439 143.321 46.997 143.435 47.0492C143.804 47.2169 144.123 47.3613 144.294 47.5703C144.536 47.8652 144.67 48.1531 144.696 48.4261C144.708 48.6164 144.663 48.8848 144.554 49.2811L141.492 60.9894C141.37 61.4372 141.208 61.7508 140.996 61.9521C140.805 62.1315 140.54 62.2438 140.208 62.2867C140.078 62.3101 139.951 62.2586 139.774 62.1853C139.685 62.1487 139.579 62.1081 139.463 62.0709C139.369 62.0409 139.27 62.0124 139.159 61.995L139.053 62.383L138.604 64.0232L144.489 65.6384L145.025 65.7854L145.577 63.7689C145.364 63.6534 145.188 63.5754 145.039 63.5099C144.742 63.3788 144.508 63.2751 144.385 63.0138C144.229 62.676 144.229 62.2345 144.385 61.6619L144.865 58.8907L146.233 50.984L148.62 66.7722L152.081 67.7221L153.025 67.9814L156.925 53.7426L157.14 52.9561C157.288 52.4209 157.427 52.0808 157.581 51.8866C157.744 51.6775 157.994 51.5184 158.325 51.4131C158.531 51.3483 158.806 51.3881 159.275 51.4638C159.383 51.4816 159.499 51.4942 159.613 51.5107C159.728 51.5274 159.842 51.548 159.954 51.5582L160.514 49.5135L154.096 47.582L153.853 48.4705ZM48.5108 42.4794L49.1553 44.1715L47.3477 44.8423L47.1283 44.9237L41.9763 46.8355L33.3783 37.2474L31.4591 37.7209L32.8053 41.2549L33.8147 43.9047C33.9838 44.347 34.1311 44.6349 34.2776 44.8096C34.4272 44.9906 34.5986 45.1294 34.7872 45.2238C34.9648 45.312 35.1908 45.3783 35.4932 45.4259C35.6615 45.436 35.8274 45.4422 36.016 45.4376L36.5229 45.4011L37.5215 45.3291L38.3071 47.3909L38.5734 48.0899L37.8374 48.3432L26.8773 52.1144L25.823 49.345C26.0466 49.1929 26.2695 49.0502 26.4775 48.9168C27.2295 48.4355 27.6276 48.1687 27.7461 47.8457C27.9019 47.4198 27.8365 46.8417 27.5458 46.0765L22.1731 31.9728C21.9814 31.4704 21.7866 31.1182 21.577 30.8951C21.3533 30.6568 21.0245 30.4891 20.5967 30.3959C20.2266 30.319 19.5969 30.4396 18.7453 30.6178C18.5185 30.6654 18.3011 30.711 18.1172 30.7438L17.3707 28.7852L17.0684 27.992L31.1209 22.6687C32.8703 22.0193 34.3189 21.7256 35.4176 21.7915C36.4913 21.8574 37.4872 22.2767 38.3778 23.0377C39.2825 23.8111 39.9885 24.8533 40.4763 26.1358C40.8971 27.2373 41.1199 28.2986 41.1394 29.2897C41.1581 30.2687 41.0116 31.1311 40.7031 31.8527C40.3875 32.5875 39.874 33.3809 39.1773 34.2097L38.9802 34.4445L44.5992 40.2933C45.08 40.8046 45.5927 41.144 46.1226 41.3015C46.6065 41.4458 47.4683 41.4716 48.1049 41.4139L48.5108 42.4794ZM34.0415 29.2136C33.7399 28.4242 33.3487 27.8188 32.8788 27.4144C32.3926 26.9966 31.8643 26.7739 31.3087 26.7517C30.7827 26.724 30.0955 26.8785 29.2173 27.2045L27.6713 27.7783L28.2368 29.2624L30.316 34.7191L31.8557 34.1473C31.9481 34.1131 32.0318 34.077 32.1192 34.0416C33.3031 33.5626 34.0296 32.9865 34.3235 32.2825C34.6344 31.5344 34.5425 30.5308 34.0415 29.2136ZM139.087 58.5657C138.591 59.6696 137.934 60.5964 137.143 61.3564C136.802 61.6839 136.444 61.9895 136.051 62.2501C134.75 63.1113 133.238 63.5208 131.58 63.4701C129.917 63.4171 128.48 62.9155 127.31 61.9794C126.137 61.0401 125.296 59.7444 124.812 58.1273C124.319 56.4829 124.137 54.684 124.27 52.7798C124.402 50.8764 124.834 49.0954 125.554 47.4861C125.934 46.6372 126.41 45.8959 126.964 45.2505C127.445 44.6907 127.983 44.201 128.59 43.8017C129.815 42.9935 131.221 42.5848 132.775 42.5848C132.869 42.5848 132.964 42.5863 133.06 42.5895C134.724 42.6425 136.161 43.1418 137.331 44.0732C138.504 45.0062 139.345 46.2964 139.83 47.9089C140.322 49.5486 140.505 51.3506 140.372 53.2642C140.238 55.177 139.806 56.9611 139.087 58.5657ZM134.857 46.4462C134.454 45.6318 133.775 45.1942 132.894 45.1801C132.882 45.1794 132.87 45.1794 132.858 45.1794C132.107 45.1794 131.463 45.5749 130.942 46.3557C130.711 46.7064 130.505 47.1466 130.318 47.6594C129.861 48.9158 129.535 50.658 129.333 52.9498C129.043 56.2379 129.191 58.4128 129.784 59.5978C130.185 60.4114 130.864 60.8498 131.746 60.8638C131.758 60.8646 131.77 60.8646 131.783 60.8646C131.801 60.8646 131.818 60.8579 131.836 60.8574C132.564 60.8387 133.185 60.4556 133.682 59.7046C134.491 58.4838 135.024 56.3214 135.308 53.0941C135.597 49.8069 135.45 47.632 134.857 46.4462ZM172.268 10.4373C169.485 9.67006 166.844 9.88966 164.831 11.0543C164.104 11.4763 163.467 12.0222 162.921 12.6692C162.107 13.6333 161.501 14.8282 161.141 16.2228C160 20.6455 161.617 23.5947 166.91 26.7419C170.374 28.7959 171.287 29.9746 170.82 31.7872C170.586 32.6929 170.124 33.3516 169.446 33.744C169.151 33.9153 168.807 34.014 168.444 34.0774C167.815 34.1871 167.103 34.1535 166.317 33.9375C163.53 33.169 162.185 31.0436 162.03 27.1199C162.014 26.7377 162.006 26.3445 162.014 25.9275L160.311 25.4586L158.509 24.9622L158.148 26.9921L157.339 31.5368C158.896 33.5552 161.879 35.365 165.124 36.259C168.348 37.1479 171.209 36.9689 173.324 35.7434C173.734 35.5059 174.111 35.2282 174.458 34.9176C175.591 33.9059 176.395 32.5129 176.849 30.7532C177.784 27.1253 176.8 24.6504 174.638 22.6073C174.1 22.0982 173.484 21.6167 172.81 21.1503C172.224 20.7448 171.598 20.3496 170.926 19.9606C167.872 18.2125 166.587 17.1042 166.946 15.1033C166.966 14.992 166.988 14.8795 167.019 14.7625C167.227 13.9621 167.68 13.3396 168.332 12.9617C169.096 12.5217 170.083 12.4487 171.188 12.7514C174.445 13.6497 174.917 16.7552 175.122 19.86L178.106 20.6818L178.131 20.5803L179.528 14.7461C178.018 12.8407 175.441 11.311 172.268 10.4373ZM98.0868 60.0143C98.1351 60.6509 98.178 62.0691 98.1265 62.5652C98.0878 62.5741 98.0383 62.5823 97.9972 62.5911C96.7617 62.8547 94.4964 63.0431 92.9127 63.1729C92.3299 63.2213 91.8491 63.2611 91.5577 63.2938C91.3808 63.0434 91.3605 62.8858 91.3402 62.7298C91.3215 62.591 91.2982 62.4193 91.1525 62.197L90.914 61.8343L90.6187 62.1525C89.9758 62.8437 88.2693 64.68 85.1875 65.0615C84.7932 65.1106 84.3958 65.1356 84.0054 65.1356C82.8412 65.1356 81.8649 64.918 81.1036 64.4897C79.4056 63.5419 78.6778 61.8951 78.5633 60.6704C78.3256 58.1421 79.7563 55.3104 82.0433 53.7837L82.4056 53.5419L82.0838 53.2478C81.0482 52.3016 80.0828 51.1775 80.036 49.3677C80.005 48.1622 80.3966 46.9287 81.1041 45.9543C81.1251 45.9255 81.1397 45.8919 81.1612 45.8635C82.0908 44.6107 83.8644 43.705 85.574 43.6106C85.7626 43.6005 85.9441 43.595 86.1194 43.595C87.681 43.595 88.7501 43.9999 89.6337 44.9087C90.2439 45.5101 90.5945 46.3784 90.6195 47.3519C90.6393 48.1227 90.4529 49.9451 88.5533 51.6465C88.2861 51.8857 87.9858 52.1226 87.6467 52.3538L87.2774 52.6058L87.6179 52.896C87.6557 52.9282 87.6875 52.9562 87.7249 52.9881C88.1639 53.3626 88.5706 53.7151 88.9573 54.0551C89.929 54.9093 90.7635 55.6846 91.539 56.4969L91.8834 56.8581L92.0938 56.4056C92.5519 55.4235 92.7717 54.4031 92.714 53.5333L92.6922 53.1995L91.2499 53.2665C91.2302 53.0375 91.2253 52.8364 91.2191 52.6325C91.2077 52.2635 91.2102 51.919 91.2429 51.6221L94.4782 51.2212C95.005 51.1564 95.6135 51.0605 96.1387 50.9778L96.2237 50.9645C96.5525 50.9122 96.8439 50.8662 97.052 50.8373C97.1767 51.4201 97.2296 52.091 97.1876 52.5348L95.9003 52.8929L95.859 53.0973C95.7824 53.4688 95.7029 53.7997 95.6216 54.1104C95.5525 54.3745 95.4817 54.6211 95.4089 54.8486C94.968 56.2274 94.4585 57.0007 93.8548 57.9104L93.4777 58.4846L93.6873 58.6804C93.8977 58.8762 94.0333 58.9947 94.1673 59.1102C94.3465 59.2647 94.5062 59.4035 94.8351 59.7319C95.1444 60.0588 95.3338 60.2554 95.6424 60.2156L98.0868 60.0143ZM87.5992 48.0985C87.5758 47.2099 87.2914 46.6568 87.0561 46.3503C86.5846 45.734 86.1218 45.7278 85.8077 45.7465C85.355 45.7714 84.9342 45.9899 84.6389 46.3674C84.3124 46.8534 84.208 47.4993 84.2181 47.9058C84.2198 47.973 84.2306 48.0389 84.2362 48.1055C84.3059 48.9277 84.6682 49.7041 85.3276 50.4225C85.5539 50.6692 85.8129 50.9096 86.1077 51.1424L86.3649 51.346L86.5776 51.0963C87.3257 50.2219 87.6311 49.3255 87.5992 48.0985ZM88.9519 60.0884L88.5841 59.7109C87.2602 58.3574 85.6122 56.6724 84.1776 55.5982L83.8277 55.3361L83.6586 55.7394C83.2971 56.6069 83.1802 57.2934 83.2558 58.1101C83.2861 58.4304 83.3319 58.7197 83.394 58.9838C83.5859 59.7996 83.938 60.3675 84.5072 60.8053C84.9296 61.1307 85.4415 61.3012 85.851 61.3641C85.9756 61.3832 86.093 61.3943 86.1927 61.3943C86.2535 61.3943 86.3088 61.3904 86.3571 61.3842C87.448 61.2492 88.041 60.9824 88.7088 60.3264L88.9519 60.0884ZM195.825 39.6636C194.672 40.9244 193.337 41.8557 191.837 42.4272C189.985 43.134 188.005 43.2237 185.951 42.6932C183.904 42.1651 182.26 41.1416 181.067 39.6513C179.872 38.1586 179.189 36.3168 179.038 34.1774C178.885 32.0095 179.159 29.7371 179.85 27.4226C180.541 25.1092 181.567 23.0291 182.902 21.2415C183.216 20.8208 183.548 20.4314 183.894 20.0695C185.003 18.9128 186.274 18.0569 187.689 17.5209C188.744 17.1215 189.841 16.9218 190.969 16.9218C191.821 16.9218 192.689 17.0357 193.572 17.2635C195.621 17.7924 197.265 18.8131 198.46 20.2972C199.657 21.7845 200.341 23.62 200.494 25.7524C200.648 27.9144 200.374 30.1903 199.68 32.5162C198.985 34.8428 197.957 36.9252 196.625 38.7062C196.371 39.0464 196.102 39.3616 195.825 39.6636ZM194.609 22.6078C194.343 21.5146 193.671 20.8304 192.612 20.5742C191.705 20.3553 190.815 20.651 189.97 21.4576C189.445 21.9628 188.933 22.6784 188.426 23.5929C187.673 24.9528 186.935 26.7652 186.197 29.0814C184.939 33.0279 184.522 35.7266 184.92 37.3309C185.186 38.4246 185.858 39.1087 186.918 39.3646C187.113 39.4122 187.307 39.4356 187.5 39.4356C187.72 39.4356 187.937 39.3937 188.153 39.3322C188.626 39.1973 189.088 38.9256 189.534 38.4963C190.856 37.2302 192.099 34.7312 193.333 30.8573C194.59 26.9104 195.008 24.2117 194.609 22.6078ZM54.1416 38.8411C53.9961 38.7666 53.8499 38.7166 53.7033 38.6736C53.5029 38.6148 53.3014 38.5767 53.0966 38.5767C52.8504 38.5767 52.6003 38.6192 52.3439 38.7031C51.9478 38.8333 51.6306 39.0432 51.3708 39.3208C51.2198 39.4823 51.0831 39.6607 50.9748 39.8751C50.681 40.4571 50.6382 41.0457 50.8439 41.6736C51.0496 42.3016 51.4322 42.7502 52.0135 43.0435C52.5956 43.3399 53.1823 43.3828 53.8104 43.1761C54.1461 43.0658 54.4268 42.8999 54.664 42.6842C54.8695 42.4973 55.0432 42.2741 55.1803 42.0036C55.2657 41.8344 55.3235 41.6642 55.3666 41.4931C55.4716 41.0758 55.4571 40.651 55.3112 40.2059C55.1086 39.5865 54.726 39.1403 54.1416 38.8411ZM79.4535 34.9241C79.6918 34.7509 79.8949 34.5298 80.0641 34.2561C80.4077 33.7007 80.5004 33.1176 80.3493 32.4736C80.2004 31.8386 79.8568 31.3605 79.2997 31.0121C78.7441 30.6642 78.1635 30.5679 77.5191 30.72C77.0486 30.8311 76.6672 31.0477 76.3608 31.3724C76.2486 31.4913 76.1448 31.6225 76.0526 31.7716C75.7098 32.327 75.6163 32.9101 75.7674 33.5541C75.9186 34.1976 76.2622 34.6774 76.817 35.0214C77.3726 35.3654 77.9555 35.4587 78.5984 35.3073C78.9244 35.2305 79.2077 35.1028 79.4535 34.9241Z" fill="#19105F"/>
<path d="M232.3 29.739C208.426 16.0203 164.279 0 118.431 0C89.1253 0 59.99 8.25861 37.857 15.8392L34.8402 4.54724C34.8038 4.15373 34.7199 3.75389 34.5876 3.34815C34.1995 2.1589 33.4904 1.36633 32.4805 0.992664C29.4306 -0.139246 24.3267 2.9659 21.8768 4.45782C21.428 4.73085 21.0672 4.95084 20.8225 5.0815C18.9508 6.08041 14.8568 6.22005 14.8155 6.22161L14.3331 6.23643L16.7837 12.5053L12.0944 12.7786C11.6355 12.7498 0.806563 12.2205 0.0795453 18.595C-0.201317 21.0544 0.263394 23.0043 1.44489 24.4141C4.68004 30.3278 13.6312 54.4322 13.7214 54.6753L13.7635 54.7545C19.1339 62.2851 25.9522 57.7695 25.9639 57.7547C26.482 57.5312 78.2242 35.4371 118.431 35.4371C133.09 35.4371 147.612 37.6682 160.859 40.8398C160.158 40.7916 159.487 40.7821 158.865 40.8287L158.592 40.8494L158.554 41.1213C158.323 42.7603 157.96 45.2777 157.81 46.1674C149.403 43.5626 134.532 39.5841 120.122 38.8489C96.5235 37.6424 71.988 44.1262 71.7021 44.2053C66.3924 46.3732 67.8387 51.8085 67.8535 51.8604L68.4465 54.0568C64.1688 53.4718 56.4167 49.9508 56.3357 49.914L55.71 49.6281L61.8604 76.7511L61.9064 76.952L62.1051 77.005C62.7301 77.1723 72.5203 79.7626 79.8091 79.7622C83.7053 79.7622 86.8876 79.0219 87.571 76.776C87.8131 75.9811 87.8277 75.3847 87.6257 74.9585L86.0896 69.0452C92.8834 67.8291 102.691 67.0122 115.458 66.6037C137.127 65.9141 153.817 74.2341 154.048 74.3429C154.16 74.3734 156.811 75.0766 159.132 73.6916C160.593 72.8194 161.578 71.324 162.06 69.2462C162.149 68.8646 162.255 68.4509 162.374 68.0137C163.625 68.6217 167.771 70.4885 171.533 70.4885C172.436 70.4885 173.316 70.3809 174.128 70.1219L174.298 70.0677L174.35 69.8968C174.407 69.7123 180.021 51.4407 182.09 48.4584L182.313 48.1362L181.963 47.9591C181.665 47.8086 178.14 46.0378 173.697 44.2947C180.25 46.2499 186.327 48.3502 191.757 50.4014L184.429 65.1308C184.21 65.4625 184.024 65.8292 183.881 66.2382C183.474 67.3997 183.563 68.4767 184.144 69.4389C186.082 72.6505 193.079 73.6838 195.713 74.0726C195.964 74.1097 196.173 74.1409 196.331 74.1666C198.424 74.5114 201.76 76.8911 201.794 76.9149L202.187 77.1965L204.045 70.7278L207.964 73.3838C208.212 73.5558 212.472 76.4539 216.504 76.4539C218.136 76.4539 219.732 75.978 221.008 74.653C222.422 73.1844 223.224 71.6385 223.418 70.0424L223.423 70.0427C223.661 66.8861 234.302 41.2878 234.428 40.9738C236.455 32.0168 232.459 29.8213 232.3 29.739ZM159.133 41.8979C160.203 42.8244 161.902 43.5772 161.97 43.6062C163.122 44.203 164.557 44.2178 165.946 44.2327C167.3 44.2467 168.579 44.2603 169.15 44.8692C169.422 45.1574 169.539 45.5845 169.508 46.1747C169.469 46.9509 169.196 47.5242 168.673 47.9275C167.307 48.9818 164.727 48.467 164.707 48.467C164.635 48.44 162.3 47.5744 158.461 46.3701C158.573 45.8197 158.751 44.6077 159.133 41.8979ZM86.9196 76.5771C85.4616 81.3591 68.9787 78.1166 62.4799 76.3985L56.6778 50.8143C58.6858 51.6983 64.9637 54.3586 68.6375 54.7645L74.1424 75.1554C74.1425 75.1557 74.1425 75.1562 74.1426 75.1566C74.1428 75.1572 74.1431 75.1576 74.1432 75.1583C74.3329 75.8817 74.7262 76.4121 75.3114 76.7324C76.9463 77.6279 79.8154 76.6945 82.3463 75.8715C84.2289 75.2592 86.3648 74.5641 86.9219 75.1129C87.204 75.3902 87.0762 76.0623 86.9196 76.5771ZM86.7518 74.3037C85.7385 74.0617 84.1092 74.5813 82.1359 75.2225C79.7351 76.0022 77.0148 76.886 75.6379 76.1336C75.2179 75.9035 74.9444 75.5271 74.8018 74.9834C74.6351 74.3465 74.7598 73.7606 75.1836 73.1927C76.3955 71.5681 79.8237 70.2263 85.4185 69.1709L86.7518 74.3037ZM158.788 73.1022C156.75 74.3227 154.32 73.7087 154.291 73.7087C154.104 73.6143 137.266 65.2116 115.436 65.9219C91.1819 66.6977 77.4551 69.0067 74.6374 72.7843C74.5177 72.9449 74.4241 73.1097 74.3408 73.2761L68.5111 51.6802C68.4558 51.4809 67.2184 46.773 71.9187 44.8509C72.1634 44.7857 96.5999 38.3309 120.087 39.5307C141.628 40.6298 164.242 49.0216 164.517 49.1207C164.625 49.1432 166.929 49.6109 168.574 48.7837C167.056 52.5598 162.639 63.7427 161.396 69.0918C160.958 70.9792 160.08 72.3284 158.788 73.1022ZM181.095 48.8065C181.089 48.8178 181.083 48.8312 181.077 48.8427C181.006 48.9777 180.934 49.1215 180.859 49.2756C180.84 49.3162 180.819 49.3612 180.799 49.4031C180.737 49.5339 180.674 49.6676 180.609 49.8103C180.584 49.8666 180.557 49.927 180.531 49.985C180.47 50.1214 180.409 50.2599 180.346 50.4055C180.317 50.474 180.286 50.5456 180.257 50.616C180.196 50.7575 180.136 50.9008 180.074 51.0498C180.04 51.1326 180.005 51.2177 179.97 51.3027C179.911 51.4474 179.852 51.594 179.792 51.7447C179.755 51.8355 179.719 51.9274 179.682 52.0202C179.621 52.1738 179.56 52.3297 179.498 52.4886C179.46 52.5872 179.422 52.6862 179.383 52.7866C179.324 52.9398 179.265 53.0951 179.206 53.2524C179.164 53.3629 179.122 53.4732 179.08 53.5856C179.019 53.748 178.958 53.9129 178.896 54.0789C178.856 54.1869 178.816 54.2941 178.776 54.4035C178.713 54.5758 178.649 54.7506 178.586 54.926C178.546 55.0355 178.506 55.1439 178.466 55.2544C178.405 55.4237 178.344 55.595 178.283 55.7666C178.239 55.89 178.195 56.0124 178.151 56.1368C178.091 56.3038 178.032 56.4725 177.973 56.6409C177.929 56.7652 177.885 56.8884 177.842 57.0133C177.769 57.2217 177.696 57.4314 177.624 57.641C177.548 57.8588 177.473 58.0767 177.398 58.2952C177.343 58.4542 177.289 58.6131 177.234 58.7722C177.182 58.9253 177.131 59.0779 177.079 59.2309C177.029 59.3784 176.978 59.5258 176.929 59.673C176.876 59.8291 176.824 59.9841 176.772 60.1397C176.726 60.2772 176.679 60.4149 176.633 60.5518C176.584 60.7001 176.535 60.8469 176.486 60.9942C176.435 61.1487 176.383 61.3027 176.333 61.4558C176.289 61.5885 176.245 61.7194 176.202 61.8509C176.152 62.003 176.102 62.1547 176.052 62.305C176.007 62.4424 175.963 62.578 175.918 62.7136C175.868 62.8674 175.818 63.0197 175.769 63.1709C175.732 63.2827 175.696 63.3933 175.661 63.5035C175.606 63.6728 175.551 63.8395 175.498 64.0048C175.465 64.107 175.432 64.2083 175.4 64.3088C175.343 64.4827 175.289 64.6526 175.235 64.821C175.211 64.8954 175.187 64.9701 175.163 65.0434C175.098 65.2471 175.034 65.4449 174.972 65.6393C174.959 65.6795 174.946 65.7202 174.934 65.7599C174.339 67.6233 173.905 69.0245 173.752 69.5228C169.739 70.6751 163.806 67.9509 162.562 67.3445C164.592 60.2939 169.669 47.8974 169.725 47.761L169.716 47.7572C169.99 47.3231 170.158 46.8126 170.189 46.2094C170.229 45.4238 170.052 44.8325 169.648 44.4019C168.876 43.5809 167.456 43.5661 165.953 43.5501C164.644 43.5364 163.291 43.5224 162.264 42.9907C162.244 42.9824 160.687 42.2927 159.694 41.4819C166.817 41.4343 179.127 47.326 181.319 48.4014C181.247 48.5232 181.172 48.6597 181.095 48.8065ZM15.3165 6.88078C16.4916 6.81174 19.5111 6.55509 21.1436 5.68373C21.3953 5.54917 21.7685 5.32255 22.2306 5.04094C24.5893 3.60479 29.4938 0.61276 32.2444 1.63273C33.0603 1.93462 33.6143 2.56533 33.9392 3.56033C34.4005 4.97229 34.1878 6.30391 33.3081 7.5185C31.1613 10.4825 25.4223 12.2533 21.114 12.2533V12.5945L21.0945 12.254L17.4989 12.4636L15.3165 6.88078ZM0.757472 18.6722C1.41202 12.9354 11.9503 13.4538 12.0952 13.4597L21.1247 12.9355C25.6026 12.9326 31.587 11.0568 33.8598 7.91947C34.2122 7.43294 34.4655 6.929 34.6319 6.41146L37.2096 16.0601C30.9118 18.2265 25.1918 20.3304 20.2147 22.1616C15.9508 23.7303 12.2682 25.085 9.14895 26.1564C9.10454 26.1619 4.70347 26.7142 2.28242 24.3318C0.986564 23.0575 0.473834 21.1533 0.757472 18.6722ZM201.796 76.0864C200.821 75.4265 198.267 73.7942 196.442 73.4934C196.282 73.4669 196.068 73.4353 195.812 73.3975C193.265 73.0215 186.5 72.0222 184.727 69.0859C184.252 68.2988 184.185 67.4447 184.521 66.4765L184.996 65.5233C185.486 64.7806 186.19 64.2593 187.113 63.9833C190.895 62.8538 197.31 65.886 200.453 68.2933L200.469 68.3047L203.451 70.3257L201.796 76.0864ZM220.517 74.1795C216.492 78.3588 208.432 72.8775 208.348 72.8206L200.863 67.7482C197.512 65.1826 190.976 62.1163 186.918 63.3292C186.535 63.4438 186.184 63.5942 185.864 63.778L192.399 50.6438C207.921 56.5508 217.976 61.9711 218.384 62.1928C218.532 62.2959 222.379 65.0088 222.759 68.6959C222.954 70.5864 222.199 72.4313 220.517 74.1795ZM233.78 40.7671C233.396 41.6907 225.469 60.7615 223.29 67.7786C222.451 64.1841 218.917 61.7305 218.755 61.6205L218.727 61.6033C218.237 61.3346 169.151 34.7546 118.431 34.7546C78.0855 34.7546 26.2132 56.904 25.6374 57.1591C25.6218 57.1697 24.0485 58.2263 21.8706 58.4135C18.9781 58.6639 16.4378 57.3112 14.3448 54.3949C13.9453 53.3198 6.44611 33.1756 2.81477 25.6125C5.48416 27.3037 9.07498 26.8533 9.30402 26.8175C12.4957 25.7285 16.1815 24.3723 20.4493 22.8024C42.9362 14.5292 80.572 0.682579 118.431 0.682579C164.144 0.682579 208.159 16.6541 231.972 30.3369C232.008 30.3568 235.663 32.4275 233.78 40.7671Z" fill="#19105F"/>
<path d="M100.506 73.3147L100.55 73.352L100.619 74.4225L100.58 74.4662L97.8266 74.6421L97.8921 75.671L99.9055 75.542L99.9492 75.5804L100.017 76.6498L99.979 76.6935L97.965 76.8225L98.0465 78.0988L100.882 77.9175L100.926 77.9548L100.994 79.0253L100.955 79.069L97.0102 79.3217L96.9666 79.2822L96.605 73.6047L96.6433 73.561L100.506 73.3147Z" fill="#19105F"/>
<path d="M104.924 74.5643C104.733 74.3244 104.481 74.2103 104.275 74.2188C103.987 74.2306 103.87 74.399 103.88 74.6464C103.906 75.3064 106.335 75.2104 106.41 77.1072C106.449 78.0966 105.659 78.9954 104.547 79.0381C103.682 79.0733 102.882 78.65 102.561 77.8375L103.483 77.1648L103.566 77.1616C103.793 77.7053 104.17 77.8557 104.5 77.8429C104.912 77.8269 105.191 77.5678 105.174 77.1552C105.135 76.1657 102.707 76.3033 102.644 74.6965C102.607 73.7476 103.313 73.0588 104.228 73.0226C104.928 72.9948 105.392 73.2667 105.87 73.8659L105.006 74.5611L104.924 74.5643Z" fill="#19105F"/>
<path d="M112.318 72.9512L112.36 72.9917L112.378 74.0643L112.338 74.1059L110.649 74.1347L110.728 78.7119L110.688 78.7535L109.617 78.7716L109.574 78.7311L109.496 74.1539L107.808 74.1837L107.765 74.1432L107.747 73.0706L107.788 73.029L112.318 72.9512Z" fill="#19105F"/>
<path d="M114.457 77.5593L114.499 77.6009L114.504 78.6724L114.462 78.714L113.392 78.7194L113.351 78.6778L113.345 77.6062L113.386 77.5647L114.457 77.5593Z" fill="#19105F"/>
<path d="M121.535 73.0184L121.401 78.7492L121.359 78.7897L120.289 78.7641L120.248 78.7226L120.36 73.9225L120.402 73.8415L121.494 72.9757L121.535 73.0184Z" fill="#19105F"/>
<path d="M127.169 73.2265L127.208 73.2691L126.459 74.3524L125.224 74.298L125.146 75.1222C126.139 75.0817 127.095 75.8674 127.042 77.1042C126.993 78.2174 126.007 79.0831 124.853 79.033C124.153 79.0032 123.506 78.6854 123.121 78.0489L123.861 77.1725L123.943 77.1757C124.212 77.6416 124.491 77.8602 124.903 77.8783C125.356 77.8986 125.784 77.5457 125.806 77.0509C125.829 76.5146 125.434 76.1095 124.898 76.085C124.487 76.0668 124.319 76.118 123.857 76.3046L123.818 76.2609L124.201 73.138L124.244 73.0985L127.169 73.2265Z" fill="#19105F"/>
<path d="M130.946 73.4758L130.547 79.1971L130.503 79.2355L129.434 79.1609L129.396 79.1161L129.73 74.3256L129.777 74.2456L130.907 73.4321L130.946 73.4758Z" fill="#19105F"/>
<path d="M136.861 74.0055L136.899 74.0503L136.092 75.0899L134.861 74.9694L134.74 75.7872C135.732 75.801 136.644 76.638 136.524 77.8705C136.415 78.9794 135.382 79.7897 134.233 79.6777C133.535 79.6095 132.907 79.2555 132.558 78.5998L133.344 77.765L133.426 77.7735C133.668 78.2533 133.936 78.4868 134.346 78.5273C134.797 78.571 135.245 78.2426 135.293 77.75C135.345 77.2159 134.972 76.7894 134.44 76.7361C134.029 76.6956 133.859 76.7371 133.387 76.8981L133.351 76.8534L133.904 73.756L133.949 73.7177L136.861 74.0055Z" fill="#19105F"/>
<path d="M121.484 72.9726L121.453 74.127L119.669 74.0901L119.629 74.0475L119.337 72.9759L119.379 72.9363L121.484 72.9726Z" fill="#19105F"/>
<path d="M130.912 73.4285L130.826 74.5801L129.046 74.4595L129.009 74.4151L128.767 73.3309L128.81 73.2933L130.912 73.4285Z" fill="#19105F"/>
</g>
<defs>
<clipPath id="clip0_59_11214">
<rect width="235" height="81" fill="white"/>
</clipPath>
</defs>
</svg>
